<?xml version="1.0" encoding="utf-8"?>
<!-- Generator: Adobe Illustrator 19.1.0, SVG Export Plug-In . SVG Version: 6.00 Build 0)  -->
<svg version="1.1" id="Layer_1" xmlns="http://www.w3.org/2000/svg" xmlns:xlink="http://www.w3.org/1999/xlink" x="0px" y="0px"
	 viewBox="0 0 1400 900" enable-background="new 0 0 1400 900" xml:space="preserve">
<g>
	<path fill="#2D3244" d="M239.6,578.9c-7.4,0-13.5-6.1-13.5-13.5v-5.9h2.8v5.9c0,5.9,4.8,10.7,10.7,10.7c5.9,0,10.7-4.8,10.7-10.7
		V564h2.8v1.4C253,572.8,247,578.9,239.6,578.9z"/>
	<path fill="#2D3244" d="M227.3,556.7c-7.8,0-13.6-1.8-16.7-10.7l0-0.1l-2.4-8.9c-1.5-5.9,0.7-11.5,5.4-13.9l1.2-0.6l1.3,2.5
		l-1.2,0.6c-3.5,1.8-5.1,6.1-4,10.7l2.4,8.8c2.6,7.4,7,8.7,14.1,8.7c7.1,0,11.4-1.4,14.1-8.7l2.4-8.9c1.1-4.5-0.4-8.7-3.8-10.6
		l-1.2-0.7l1.3-2.5l1.2,0.7c4.5,2.5,6.6,8,5.2,13.7l-2.5,9C240.9,554.9,235.3,556.7,227.3,556.7z"/>
	<path fill="#4A5160" d="M217.3,527.7c-2.7,0-4.8-2.2-4.8-4.8c0-2.7,2.2-4.8,4.8-4.8c2.7,0,4.8,2.2,4.8,4.8
		C222.1,525.6,219.9,527.7,217.3,527.7z M217.3,520.9c-1.1,0-2,0.9-2,2c0,1.1,0.9,2,2,2c1.1,0,2-0.9,2-2
		C219.3,521.8,218.4,520.9,217.3,520.9z"/>
	<path fill="#4A5160" d="M251.8,566.7c-3.9,0-7.1-3.2-7.1-7.1c0-3.9,3.2-7.1,7.1-7.1c3.9,0,7.1,3.2,7.1,7.1
		C259,563.5,255.8,566.7,251.8,566.7z M251.8,555.2c-2.4,0-4.3,1.9-4.3,4.3c0,2.4,1.9,4.3,4.3,4.3c2.4,0,4.3-1.9,4.3-4.3
		C256.2,557.2,254.2,555.2,251.8,555.2z"/>
	<path fill="#4A5160" d="M237.6,527.7c-2.7,0-4.8-2.2-4.8-4.8c0-2.7,2.2-4.8,4.8-4.8c2.7,0,4.8,2.2,4.8,4.8
		C242.4,525.6,240.2,527.7,237.6,527.7z M237.6,520.9c-1.1,0-2,0.9-2,2c0,1.1,0.9,2,2,2c1.1,0,2-0.9,2-2
		C239.6,521.8,238.7,520.9,237.6,520.9z"/>
</g>
<g>
	<path fill="#4A5160" d="M526.5,522.8h-4.7c0.3-0.6,0.4-1.2,0.4-1.8c0-2.2-1.8-4-4-4c-2.2,0-4,1.8-4,4c0,0.7,0.2,1.3,0.4,1.8H510
		c-2.3,0-4.1,1.8-4.1,4.1v7.5h24.6v-7.5C530.6,524.7,528.7,522.8,526.5,522.8z M518.2,519.3c0.9,0,1.7,0.8,1.7,1.7
		c0,0.9-0.8,1.7-1.7,1.7c-0.9,0-1.7-0.8-1.7-1.7C516.5,520.1,517.3,519.3,518.2,519.3z M528.2,532.1h-19.9v-5.2c0-1,0.8-1.7,1.7-1.7
		h16.4c1,0,1.7,0.8,1.7,1.7V532.1z"/>
	<polygon fill="#4A5160" points="523.7,554.2 523.7,557.6 512.7,557.6 512.7,546.6 523.7,546.6 523.7,547.6 518.8,552.5 
		516.2,549.9 514.5,551.6 518.8,555.8 520.6,554 520.6,554 527.7,546.9 526,545.3 526,544.2 510.3,544.2 510.3,559.9 526,559.9 
		526,551.9 	"/>
	<g>
		<polygon fill="#2D3244" points="534.3,572.7 502.1,572.7 502.1,531.9 503.5,531.9 503.5,529.6 499.8,529.6 499.8,575.1 
			536.6,575.1 536.6,529.6 532.9,529.6 532.9,531.9 534.3,531.9 		"/>
		<polygon fill="#2D3244" points="532.7,524.6 532.9,527 538.9,527 538.9,577.7 497.4,577.7 497.4,527 503.5,527 503.9,524.6 
			495.1,524.6 495.1,580 541.3,580 541.3,524.6 		"/>
	</g>
</g>
<g>
	<path fill="#2D3244" d="M211.1-31.3c-5.8,5.8-7.3,14.5-4.2,21.8l2.1-2.2c-2.1-6.1-0.7-13,4-17.7c5.1-5.1,12.9-6.5,19.3-3.2l1.3-2.5
		C226.2-38.9,217.1-37.3,211.1-31.3z"/>
</g>
<path fill="none" stroke="#444444" stroke-width="2.8" stroke-linecap="square" stroke-miterlimit="10" d="M238.1-30.4"/>
<path fill="#2D3244" d="M256.3-3.9l-13.5-14.3l-2,1.9L254.2-2c0.8,0.9,0.8,2.3-0.1,3.1L254,1.3c-0.9,0.9-2.3,0.9-3.2,0l-5.7-5.7
	l-2,2l5.7,5.7c0.9,0.9,0.9,2.3,0,3.2c-0.9,0.9-2.4,0.9-3.2,0l-5.7-5.7l-2,2l5.7,5.7c0.9,0.9,0.9,2.3,0,3.2c-0.9,0.9-2.3,0.9-3.2,0
	c0,0,0,0-0.1-0.1l-4.7-4.7l0,0l-0.6-0.6l-2,2l5.3,5.3c0,0,0,0,0,0c0.8,0.9,0.8,2.3-0.1,3.1c-0.9,0.9-2.3,0.9-3.2,0l-3.6-3.6l-2,2
	l3.6,3.6c1,1,2.3,1.5,3.6,1.5c1.3,0,2.6-0.5,3.6-1.5c1-1,1.5-2.3,1.5-3.7c0.1,0,0.1,0,0.2,0c1.3,0,2.6-0.5,3.6-1.5
	c1-1,1.5-2.4,1.5-3.7c0,0,0.1,0,0.1,0c1.4,0,2.6-0.5,3.6-1.5c1-1,1.5-2.4,1.5-3.7c0,0,0.1,0,0.1,0c1.3,0,2.6-0.5,3.6-1.5l0.1-0.1
	C258.1,1.2,258.1-1.9,256.3-3.9z"/>
<path fill="#4A5160" d="M234.3,5.2c-1-1-2.4-1.5-3.7-1.5c0-1.3-0.4-2.7-1.5-3.7c-1-1-2.4-1.5-3.7-1.5c0-1.3-0.4-2.7-1.5-3.7v0
	c-1-1-2.4-1.5-3.7-1.5c0-1.3-0.4-2.7-1.5-3.7c-2-2-5.2-2-7.2,0l-3.9,3.9c-1,1-1.5,2.2-1.5,3.6c0,1.4,0.5,2.6,1.5,3.6
	c1,1,2.3,1.5,3.6,1.5c0,0,0.1,0,0.1,0c0,1.3,0.4,2.7,1.5,3.7c1,1,2.3,1.5,3.6,1.5c0,0,0.1,0,0.1,0c0,1.3,0.4,2.7,1.5,3.7
	c1,1,2.3,1.5,3.6,1.5c0,0,0.1,0,0.1,0c0,1.3,0.4,2.7,1.5,3.7c1,1,2.3,1.5,3.6,1.5s2.6-0.5,3.6-1.5l3.9-3.9
	C236.3,10.4,236.3,7.2,234.3,5.2z M209.6-1.3c-0.4-0.4-0.7-1-0.7-1.6c0-0.6,0.2-1.2,0.7-1.6l3.9-3.9c0.4-0.4,1-0.7,1.6-0.7
	c0.6,0,1.2,0.2,1.6,0.7c0.9,0.9,0.9,2.3,0,3.2l-3.9,3.9C211.9-0.4,210.5-0.4,209.6-1.3z M214.8,3.9c-0.9-0.9-0.9-2.3,0-3.2l3.9-3.9
	c0.4-0.4,1-0.7,1.6-0.7c0.6,0,1.2,0.2,1.6,0.7c0.9,0.9,0.9,2.3,0,3.2L218,3.9C217.1,4.8,215.7,4.8,214.8,3.9z M220,9.1
	c-0.9-0.9-0.9-2.3,0-3.2l3.9-3.9c0.4-0.4,1-0.7,1.6-0.7c0.6,0,1.2,0.2,1.6,0.7c0.9,0.9,0.9,2.3,0,3.2l-3.9,3.9
	C222.3,10,220.9,10,220,9.1z M232.3,10.4l-3.9,3.9c-0.9,0.9-2.3,0.9-3.2,0c-0.9-0.9-0.9-2.3,0-3.2l3.9-3.9c0.4-0.4,1-0.7,1.6-0.7
	c0.6,0,1.2,0.2,1.6,0.7C233.2,8.1,233.2,9.5,232.3,10.4z"/>
<g>
	<path fill="#4A5160" d="M245.6-20.8c-5.7,5.7-16.3-0.2-16.4-0.2l-0.9-0.5l-0.8,0.8c-3.9,3.9-7.6,3.7-9.6,3.1l11.6-11.6
		c6.6-6.6,17.4-6.6,24,0c5.7,5.7,6.5,14.5,2.4,21l1.9,2.2c5.3-7.7,4.5-18.3-2.3-25.2c-7.7-7.7-20.3-7.7-28,0L213.3-17l1.4,0.9
		c0.1,0.1,1.9,1.2,4.6,1.5c2.3,0.2,5.8-0.3,9.4-3.5c3,1.5,12.7,5.4,18.8-0.7l1-1l-2-2L245.6-20.8z"/>
</g>
<rect x="515.5" y="-7.2" fill="#4A5160" width="5.3" height="2.8"/>
<polygon fill="#4A5160" points="524.9,22.1 522.1,22.1 522.1,11.5 514.3,11.5 514.3,22.1 511.5,22.1 511.5,8.7 524.9,8.7 "/>
<rect x="499.6" y="8.7" fill="#4A5160" width="5.3" height="2.8"/>
<rect x="531.4" y="8.7" fill="#4A5160" width="5.3" height="2.8"/>
<path fill="#2D3244" d="M532.8-1.9v-9.9l-13.3-10.6v-5.9h10.6V-39h-13.4v16.6l-13.3,10.6v9.9h-13.3v24h55.8v-24H532.8z M519.6-36.2
	h7.8v5.2h-7.8V-36.2z M543.3,19.3h-50.2V0.9h13.3v-11.3l11.9-9.5l11.9,9.5V0.9h13.3V19.3z"/>
<g>
	<path fill="#2D3244" d="M253.2,264.5h-1.5c-1-7.9-7-14.2-14.6-15.8v-5.5h0.4v-2.8h-2.7v-6.9H232v6.9h-2.8v2.8h0.4v5.5
		c-7.7,1.6-13.6,7.9-14.6,15.8h-1.5v2.8h1.3l0,0h37.2l0,0h1.3V264.5z M232.4,243.3h1.8v5.1c-0.3,0-0.6,0-0.9,0c-0.3,0-0.6,0-0.9,0
		V243.3z M233.4,251.2c7.8,0,14.4,5.8,15.5,13.4h-31.1C219,256.9,225.5,251.2,233.4,251.2z"/>
	<g>
		<polygon fill="#4A5160" points="213.5,283.4 216.3,283.4 216.3,272.9 222.7,272.9 222.7,283.4 225.5,283.4 225.5,272.9 232,272.9 
			232,283.4 234.8,283.4 234.8,272.9 241.2,272.9 241.2,283.4 244,283.4 244,272.9 250.4,272.9 250.4,283.4 253.2,283.4 
			253.2,272.9 255.3,272.9 255.3,270.1 211.3,270.1 211.3,272.9 213.5,272.9 		"/>
		<polygon fill="#4A5160" points="207.5,286.2 207.5,289 209.3,289 209.3,300.8 212.1,300.8 212.1,289 218.4,289 218.4,300.8 
			221.2,300.8 221.2,289 227.4,289 227.4,300.8 230.2,300.8 230.2,289 236.5,289 236.5,300.8 239.3,300.8 239.3,289 245.5,289 
			245.5,300.8 248.3,300.8 248.3,289 254.6,289 254.6,300.8 257.4,300.8 257.4,289 259.2,289 259.2,286.2 		"/>
		<rect x="207.4" y="303.6" fill="#4A5160" width="51.7" height="2.8"/>
	</g>
</g>
<g>
	<path fill="#2D3244" d="M523,266.2h-2.8c0-2.3,0.8-3.5,1.4-4.5c0.5-0.9,1-1.6,1-3.1c0-1.5-0.4-2.2-1-3.1c-0.6-1-1.4-2.2-1.4-4.5
		c0-2.3,0.8-3.5,1.4-4.5c0.5-0.9,1-1.6,1-3.1h2.8c0,2.3-0.8,3.5-1.4,4.5c-0.5,0.9-1,1.6-1,3.1c0,1.5,0.4,2.2,1,3.1
		c0.6,1,1.4,2.2,1.4,4.5c0,2.3-0.8,3.5-1.4,4.5C523.4,264,523,264.7,523,266.2z M513.8,266.2H511c0-2.3,0.8-3.5,1.4-4.5
		c0.5-0.9,1-1.6,1-3.1c0-1.5-0.4-2.2-1-3.1c-0.6-1-1.4-2.2-1.4-4.5c0-2.3,0.8-3.5,1.4-4.5c0.5-0.9,1-1.6,1-3.1h2.8
		c0,2.3-0.8,3.5-1.4,4.5c-0.5,0.9-1,1.6-1,3.1c0,1.5,0.4,2.2,1,3.1c0.6,1,1.4,2.2,1.4,4.5c0,2.3-0.8,3.5-1.4,4.5
		C514.2,264,513.8,264.7,513.8,266.2z"/>
	<g>
		<path fill="#4A5160" d="M541.2,281.3c-2,5.2-5.3,9.5-9.4,12.6h-27.2c-4.1-3.1-7.4-7.5-9.4-12.6h-3c2.3,6.2,6.1,11.5,11.2,15.2
			l0.4,0.3h29l0.4-0.3c5-3.6,8.9-8.9,11.2-15.2H541.2z"/>
	</g>
	<path fill="#4A5160" d="M545.8,278.6h-55.3c-2.6,0-4.7-2.1-4.7-4.7c0-2.6,2.1-4.7,4.7-4.7h55.3c2.6,0,4.7,2.1,4.7,4.7
		C550.5,276.5,548.4,278.6,545.8,278.6z M490.6,272c-1,0-1.9,0.8-1.9,1.9c0,1,0.8,1.9,1.9,1.9h55.3c1,0,1.9-0.8,1.9-1.9
		c0-1-0.8-1.9-1.9-1.9H490.6z"/>
</g>
<g>
	<path fill="#2D3244" d="M352.7,163.1l-1.7-2.2c0.3-0.2,0.9-0.7,1.1-0.9c0.5-0.5,1-0.9,1.6-1.3c2.8-2,5.8-3.2,8.5-3.2l2.7,0
		c6.8,0,23.7,0,25.8,0c2.7,0,4.3-1,6.3-3c1.7-1.6,11.2-11.2,11.3-11.3c0.7-0.7,1.1-1.6,1.1-2.6c0-1-0.4-1.9-1.1-2.6
		c-1.4-1.4-3.8-1.4-5.2,0l-9.7,9.7c-1.2,1.1-2.6,1.7-4.1,1.7c-0.3,0-0.5,0.1-0.8,0.1l-9.9,0l-3.6,0l0-2.8l3.6,0l9.9,0
		c1.7,0,3.1-1.4,3.1-3.1c0-1.7-1.4-3.1-3.1-3.1l-13.7,0l-0.2-0.1c-3.4-1.3-6.3-1.9-9-2.1c-5.9-0.3-11,2.3-17.4,8.7
		c-1.1,1.1-2.1,2.1-3,2.9c-2.3,2.2-3.9,3.6-3.9,3.6l-1.9-2.1c0,0,1.6-1.4,3.8-3.6c0.9-0.9,1.9-1.8,3-2.9c7-7,12.8-9.8,19.5-9.6
		c2.9,0.1,6,0.8,9.6,2.1l13.2,0c3,0,5.4,2.2,5.8,5.1l6.9-6.9c2.5-2.5,6.6-2.5,9.2,0c1.2,1.2,1.9,2.9,1.9,4.6c0,1.7-0.7,3.4-1.9,4.6
		c-0.4,0.4-9.6,9.6-11.4,11.3c-2.3,2.2-4.6,3.7-8.2,3.7c-2.1,0-19.1,0-25.8,0l-2.7,0c-2.1,0-4.6,0.9-6.9,2.6
		c-0.5,0.3-0.9,0.7-1.3,1.1C353.6,162.4,352.8,163.1,352.7,163.1z"/>
	<path fill="none" stroke="#444444" stroke-width="2.8" stroke-miterlimit="10" d="M386.5,140.5"/>
	<path fill="#4A5160" d="M393.4,129.8C393.4,129.8,393.4,129.8,393.4,129.8c-0.9-2.7-3.3-4.7-6.2-5.1v-4.8l0.5,0c0,0,0.1,0,0.2,0
		c4,0,7.7-1.5,10.5-4.4c0,0,0,0,0,0c2.8-2.8,4.4-6.6,4.4-10.7l0-1.4l-1.4,0c-4,0-7.8,1.5-10.7,4.4c-1.6,1.6-2.7,3.4-3.4,5.4
		c0-3.9-1.6-7.6-4.3-10.4c-2.9-2.8-6.7-4.4-10.7-4.4h-1.4l0,1.4c0,4,1.5,7.8,4.4,10.7c2.5,2.5,5.7,4,9.2,4.3v10
		c-1.9,0.4-3.5,1.5-4.7,3.1c-0.4-0.1-0.9-0.1-1.3-0.1c-3,0-5.6,1.7-6.9,4.2l2.8,0.8c0.9-1.3,2.4-2.2,4.1-2.2c0.5,0,1,0.1,1.5,0.2
		l1.1,0.4l0.5-1.1c0.8-1.7,2.5-2.7,4.4-2.7c2.4,0,4.5,1.7,4.9,4.2l0.2,1.4l1.4-0.2c0.3-0.1,0.6-0.1,0.8-0.1c1.5,0,2.9,0.7,3.8,1.8
		l2-1.9C397.8,130.9,395.7,129.8,393.4,129.8z M392.7,109.8c2-2,4.5-3.2,7.2-3.5c-0.3,2.7-1.5,5.2-3.5,7.2v0c-2,2-4.5,3.2-7.2,3.5
		C389.5,114.3,390.7,111.8,392.7,109.8z M377.2,108.5c-2-2-3.2-4.5-3.5-7.2c2.7,0.3,5.2,1.5,7.2,3.5c2,2,3.2,4.5,3.5,7.2
		C381.6,111.7,379.1,110.5,377.2,108.5z"/>
</g>
<g>
	<path fill="#2D3244" d="M666.9,161.2c-7.4,0-13.5-6.1-13.5-13.5v-5.9h2.8v5.9c0,5.9,4.8,10.7,10.7,10.7c5.9,0,10.7-4.8,10.7-10.7
		v-1.4h2.8v1.4C680.4,155.1,674.3,161.2,666.9,161.2z"/>
	<path fill="#2D3244" d="M654.6,139c-7.8,0-13.6-1.8-16.7-10.7l0-0.1l-2.4-8.9c-1.5-5.9,0.7-11.5,5.4-13.9l1.2-0.6l1.3,2.5l-1.2,0.6
		c-3.5,1.8-5.1,6.1-4,10.7l2.4,8.8c2.6,7.4,7,8.7,14.1,8.7c7.1,0,11.4-1.4,14.1-8.7l2.4-8.9c1.1-4.5-0.4-8.7-3.8-10.6l-1.2-0.7
		l1.3-2.5l1.2,0.7c4.5,2.5,6.6,8,5.2,13.7l-2.5,9C668.2,137.2,662.6,139,654.6,139z"/>
	<path fill="#4A5160" d="M644.6,110c-2.7,0-4.8-2.2-4.8-4.8c0-2.7,2.2-4.8,4.8-4.8c2.7,0,4.8,2.2,4.8,4.8
		C649.4,107.9,647.3,110,644.6,110z M644.6,103.2c-1.1,0-2,0.9-2,2c0,1.1,0.9,2,2,2c1.1,0,2-0.9,2-2
		C646.6,104.1,645.7,103.2,644.6,103.2z"/>
	<path fill="#4A5160" d="M679.2,149c-3.9,0-7.1-3.2-7.1-7.1c0-3.9,3.2-7.1,7.1-7.1c3.9,0,7.1,3.2,7.1,7.1
		C686.3,145.8,683.1,149,679.2,149z M679.2,137.5c-2.4,0-4.3,1.9-4.3,4.3c0,2.4,1.9,4.3,4.3,4.3c2.4,0,4.3-1.9,4.3-4.3
		C683.5,139.5,681.5,137.5,679.2,137.5z"/>
	<path fill="#4A5160" d="M664.9,110c-2.7,0-4.8-2.2-4.8-4.8c0-2.7,2.2-4.8,4.8-4.8c2.7,0,4.8,2.2,4.8,4.8
		C669.7,107.9,667.6,110,664.9,110z M664.9,103.2c-1.1,0-2,0.9-2,2c0,1.1,0.9,2,2,2c1.1,0,2-0.9,2-2
		C666.9,104.1,666,103.2,664.9,103.2z"/>
</g>
<g>
	<path fill="#4A5160" d="M99.1,105.1h-4.7c0.3-0.6,0.4-1.2,0.4-1.8c0-2.2-1.8-4-4-4c-2.2,0-4,1.8-4,4c0,0.7,0.2,1.3,0.4,1.8h-4.6
		c-2.3,0-4.1,1.8-4.1,4.1v7.5h24.6v-7.5C103.2,107,101.4,105.1,99.1,105.1z M90.9,101.6c0.9,0,1.7,0.8,1.7,1.7
		c0,0.9-0.8,1.7-1.7,1.7c-0.9,0-1.7-0.8-1.7-1.7C89.2,102.4,90,101.6,90.9,101.6z M100.9,114.4H80.9v-5.2c0-1,0.8-1.7,1.7-1.7h16.4
		c1,0,1.7,0.8,1.7,1.7V114.4z"/>
	<polygon fill="#4A5160" points="96.4,136.5 96.4,139.9 85.4,139.9 85.4,128.9 96.4,128.9 96.4,129.9 91.4,134.8 88.9,132.2 
		87.2,133.9 91.4,138.2 93.3,136.3 93.3,136.3 100.4,129.2 98.7,127.6 98.7,126.6 83,126.6 83,142.2 98.7,142.2 98.7,134.2 	"/>
	<g>
		<polygon fill="#2D3244" points="106.9,155 74.8,155 74.8,114.2 76.2,114.2 76.2,111.9 72.5,111.9 72.5,157.4 109.3,157.4 
			109.3,111.9 105.6,111.9 105.6,114.2 106.9,114.2 		"/>
		<polygon fill="#2D3244" points="105.4,106.9 105.6,109.3 111.6,109.3 111.6,160 70.1,160 70.1,109.3 76.2,109.3 76.5,106.9 
			67.8,106.9 67.8,162.3 114,162.3 114,106.9 		"/>
	</g>
</g>
<g transform="translate(0, 0)">
	<polygon fill="#2D3244" points="404.6,433.1 346.9,433.1 346.9,387.9 351.6,387.9 351.6,390.7 349.7,390.7 349.7,430.3 
		401.8,430.3 401.8,390.7 399.7,390.7 399.7,387.9 404.6,387.9 	"/>
	<path fill="#4A5160" d="M377.1,426.7h-2.8c0-2-1.6-3.6-3.6-3.6h-16.4v-37.8h16.4c2,0,3.8,0.9,5,2.4c1.2-1.5,3-2.4,5-2.4h16.4v37.8
		h-16.4C378.8,423.1,377.1,424.8,377.1,426.7z M357.2,420.3h13.6c2,0,3.8,0.9,5,2.4c1.2-1.5,3-2.4,5-2.4h13.6v-32.2h-13.6
		c-2,0-3.6,1.6-3.6,3.6h-2.8c0-2-1.6-3.6-3.6-3.6h-13.6V420.3z"/>
	<rect x="374.3" y="397.9" fill="#4A5160" width="2.8" height="15.3"/>
</g>
<g>
	<g>
		<path fill="#2D3244" d="M638.4,386.3c-5.8,5.8-7.3,14.5-4.2,21.8l2.1-2.2c-2.1-6.1-0.7-13,4-17.7c5.1-5.1,12.9-6.5,19.3-3.2
			l1.3-2.5C653.5,378.8,644.4,380.3,638.4,386.3z"/>
	</g>
	<path fill="none" stroke="#444444" stroke-width="2.8" stroke-linecap="square" stroke-miterlimit="10" d="M665.4,387.3"/>
	<path fill="#2D3244" d="M683.6,413.8l-13.5-14.3l-2,1.9l13.5,14.3c0.8,0.9,0.8,2.3-0.1,3.1l-0.1,0.1c-0.9,0.9-2.3,0.9-3.2,0
		l-5.7-5.7l-2,2l5.7,5.7c0.9,0.9,0.9,2.3,0,3.2c-0.9,0.9-2.4,0.9-3.2,0l-5.7-5.7l-2,2l5.7,5.7c0.9,0.9,0.9,2.3,0,3.2
		c-0.9,0.9-2.3,0.9-3.2,0c0,0,0,0-0.1-0.1l-4.7-4.7l0,0l-0.6-0.6l-2,2l5.3,5.3c0,0,0,0,0,0c0.8,0.9,0.8,2.3-0.1,3.1
		c-0.9,0.9-2.3,0.9-3.2,0l-3.6-3.6l-2,2l3.6,3.6c1,1,2.3,1.5,3.6,1.5c1.3,0,2.6-0.5,3.6-1.5c1-1,1.5-2.3,1.5-3.7c0.1,0,0.1,0,0.2,0
		c1.3,0,2.6-0.5,3.6-1.5c1-1,1.5-2.4,1.5-3.7c0,0,0.1,0,0.1,0c1.4,0,2.6-0.5,3.6-1.5c1-1,1.5-2.4,1.5-3.7c0,0,0.1,0,0.1,0
		c1.3,0,2.6-0.5,3.6-1.5l0.1-0.1C685.4,418.9,685.5,415.8,683.6,413.8z"/>
	<path fill="#4A5160" d="M661.6,422.9c-1-1-2.4-1.5-3.7-1.5c0-1.3-0.4-2.7-1.5-3.7c-1-1-2.4-1.5-3.7-1.5c0-1.3-0.4-2.7-1.5-3.7v0
		c-1-1-2.4-1.5-3.7-1.5c0-1.3-0.4-2.7-1.5-3.7c-2-2-5.2-2-7.2,0l-3.9,3.9c-1,1-1.5,2.2-1.5,3.6c0,1.4,0.5,2.6,1.5,3.6
		c1,1,2.3,1.5,3.6,1.5c0,0,0.1,0,0.1,0c0,1.3,0.4,2.7,1.5,3.7c1,1,2.3,1.5,3.6,1.5c0,0,0.1,0,0.1,0c0,1.3,0.4,2.7,1.5,3.7
		c1,1,2.3,1.5,3.6,1.5c0,0,0.1,0,0.1,0c0,1.3,0.4,2.7,1.5,3.7c1,1,2.3,1.5,3.6,1.5s2.6-0.5,3.6-1.5l3.9-3.9
		C663.6,428.1,663.6,424.9,661.6,422.9z M636.9,416.4c-0.4-0.4-0.7-1-0.7-1.6c0-0.6,0.2-1.2,0.7-1.6l3.9-3.9c0.4-0.4,1-0.7,1.6-0.7
		c0.6,0,1.2,0.2,1.6,0.7c0.9,0.9,0.9,2.3,0,3.2l-3.9,3.9C639.2,417.3,637.8,417.3,636.9,416.4z M642.1,421.6c-0.9-0.9-0.9-2.3,0-3.2
		l3.9-3.9c0.4-0.4,1-0.7,1.6-0.7c0.6,0,1.2,0.2,1.6,0.7c0.9,0.9,0.9,2.3,0,3.2l-3.9,3.9C644.4,422.5,643,422.5,642.1,421.6z
		 M647.3,426.8c-0.9-0.9-0.9-2.3,0-3.2l3.9-3.9c0.4-0.4,1-0.7,1.6-0.7c0.6,0,1.2,0.2,1.6,0.7c0.9,0.9,0.9,2.3,0,3.2l-3.9,3.9
		C649.6,427.7,648.2,427.7,647.3,426.8z M659.6,428.1l-3.9,3.9c-0.9,0.9-2.3,0.9-3.2,0c-0.9-0.9-0.9-2.3,0-3.2l3.9-3.9
		c0.4-0.4,1-0.7,1.6-0.7c0.6,0,1.2,0.2,1.6,0.7C660.5,425.7,660.5,427.2,659.6,428.1z"/>
	<g>
		<path fill="#4A5160" d="M672.9,396.9c-5.7,5.7-16.3-0.2-16.4-0.2l-0.9-0.5l-0.8,0.8c-3.9,3.9-7.6,3.7-9.6,3.1l11.6-11.6
			c6.6-6.6,17.4-6.6,24,0c5.7,5.7,6.5,14.5,2.4,21l1.9,2.2c5.3-7.7,4.5-18.3-2.3-25.2c-7.7-7.7-20.3-7.7-28,0l-14.2,14.2l1.4,0.9
			c0.1,0.1,1.9,1.2,4.6,1.5c2.3,0.2,5.8-0.3,9.4-3.5c3,1.5,12.7,5.4,18.8-0.7l1-1l-2-2L672.9,396.9z"/>
	</g>
</g>
<g transform="translate(0, 0)">
	<rect x="88.2" y="410.5" fill="#4A5160" width="5.3" height="2.8"/>
	<polygon fill="#4A5160" points="97.6,439.8 94.8,439.8 94.8,429.2 87,429.2 87,439.8 84.2,439.8 84.2,426.4 97.6,426.4 	"/>
	<rect x="72.3" y="426.4" fill="#4A5160" width="5.3" height="2.8"/>
	<rect x="104.1" y="426.4" fill="#4A5160" width="5.3" height="2.8"/>
	<path fill="#2D3244" d="M105.5,415.8v-9.9l-13.3-10.6v-5.9h10.6v-10.8H89.5v16.6l-13.3,10.6v9.9H63v24h55.8v-24H105.5z M92.3,381.5
		h7.8v5.2h-7.8V381.5z M116,437H65.8v-18.4H79v-11.3l11.9-9.5l11.9,9.5v11.3H116V437z"/>
</g>
<g>
	<g>
		<path fill="#2D3244" d="M401.3,675.4l-1.6,2.1c2.4,1.7,3.8,4.5,3.8,7.4c0,2.9-1.4,5.7-3.8,7.4l1.5,2.2c3.1-2.2,4.9-5.8,4.9-9.6
			C406.2,681.2,404.4,677.6,401.3,675.4z"/>
		<path fill="#2D3244" d="M406.3,668.9l-1.6,2.1c4.4,3.2,7.1,8.5,7.1,13.9c0,5.5-2.7,10.8-7.2,14l1.6,2.2c5.2-3.7,8.3-9.8,8.3-16.1
			C414.5,678.6,411.5,672.6,406.3,668.9z"/>
	</g>
	<path fill="#4A5160" d="M363.6,705.7c-0.3-0.3-1.3-1.1-1.6-1.5l0,0c-0.1-0.1-0.1-0.3-0.1-0.5c0-0.2,0-0.5,0.1-0.8
		c0.1-0.5,0.1-1,0.2-1.8c0-0.7-0.1-1.4-0.3-2h-2.9c0.1,0.1,0.1,0.3,0.2,0.4c0.1,0.2,0.1,0.3,0.2,0.4c0.2,0.5,0.2,0.9,0.2,1.2
		c0,0.5-0.1,1-0.1,1.4c-0.1,0.4-0.1,0.8-0.1,1.3c0,0.3,0,0.8,0.2,1.3c0.2,0.8,0.9,1.4,2.4,2.7c1.4,1.2,2.1,2.5,2.1,4
		c0,0.2-0.1,0.5-0.2,0.6h-7.4c-0.2,0-0.4-0.1-0.5-0.4l-4.7-12.8h-2.8l5.1,13.7c0.5,1.3,1.7,2.1,3,2.1h7.5c1.7,0,2.7-1.7,2.7-3.2
		C366.6,709.5,365.6,707.4,363.6,705.7z"/>
	<path fill="#4A5160" d="M388.3,675.5v-15.1l-2.2,1.9c-0.5,0.4-1.1,1-1.8,1.6c-4.6,4.1-13.2,11.8-20,11.8h-20.4
		c-1.3,0-2.4,1.1-2.4,2.4v0.6c-2.8,1.5-4.5,4.3-4.5,7.5c0,3.2,1.8,6,4.5,7.5v0.5c0,1.3,1.1,2.4,2.4,2.4h1.5v0h17.1v0h1.9
		c3.8,0,10.6,2,21.8,11.6l2.2,1.9v-15.3c4-1.4,6.7-5.2,6.7-9.5C395,680.8,392.2,677,388.3,675.5z M341.5,690.4
		c-1.2-1.1-1.9-2.6-1.9-4.3c0-1.7,0.7-3.2,1.9-4.3V690.4z M385.6,704.2c-7.9-6.4-14.6-9.8-20-10.3v-0.1H363v0h-3.6h-13h-2.2v-15.5
		H363v12.8h2.7v-12.9c7.2-0.8,15.3-7.8,20-12V704.2z M388.3,691.7v-13.3c2.4,1.3,4,3.8,4,6.6C392.3,687.9,390.7,690.4,388.3,691.7z"
		/>
</g>
<g>
	<path fill="#2D3244" d="M680.6,682.2H679c-1-7.9-7-14.2-14.6-15.8V661h0.4v-2.8h-2.7v-6.9h-2.8v6.9h-2.8v2.8h0.4v5.5
		c-7.7,1.6-13.6,7.9-14.6,15.8h-1.5v2.8h1.3l0,0h37.2l0,0h1.3V682.2z M659.8,661h1.8v5.1c-0.3,0-0.6,0-0.9,0c-0.3,0-0.6,0-0.9,0V661
		z M660.7,668.9c7.8,0,14.4,5.8,15.5,13.4h-31.1C646.3,674.6,652.8,668.9,660.7,668.9z"/>
	<g>
		<polygon fill="#4A5160" points="640.8,701.1 643.6,701.1 643.6,690.6 650,690.6 650,701.1 652.8,701.1 652.8,690.6 659.3,690.6 
			659.3,701.1 662.1,701.1 662.1,690.6 668.5,690.6 668.5,701.1 671.3,701.1 671.3,690.6 677.7,690.6 677.7,701.1 680.5,701.1 
			680.5,690.6 682.7,690.6 682.7,687.8 638.7,687.8 638.7,690.6 640.8,690.6 		"/>
		<polygon fill="#4A5160" points="634.8,703.9 634.8,706.7 636.6,706.7 636.6,718.5 639.4,718.5 639.4,706.7 645.7,706.7 
			645.7,718.5 648.5,718.5 648.5,706.7 654.7,706.7 654.7,718.5 657.5,718.5 657.5,706.7 663.8,706.7 663.8,718.5 666.6,718.5 
			666.6,706.7 672.9,706.7 672.9,718.5 675.7,718.5 675.7,706.7 681.9,706.7 681.9,718.5 684.7,718.5 684.7,706.7 686.5,706.7 
			686.5,703.9 		"/>
		<rect x="634.7" y="721.3" fill="#4A5160" width="51.7" height="2.8"/>
	</g>
</g>
<g>
	<path fill="#2D3244" d="M95.7,683.9h-2.8c0-2.3,0.8-3.5,1.4-4.5c0.5-0.9,1-1.6,1-3.1c0-1.5-0.4-2.2-1-3.1c-0.6-1-1.4-2.2-1.4-4.5
		c0-2.3,0.8-3.5,1.4-4.5c0.5-0.9,1-1.6,1-3.1H98c0,2.3-0.8,3.5-1.4,4.5c-0.5,0.9-1,1.6-1,3.1c0,1.5,0.4,2.2,1,3.1
		c0.6,1,1.4,2.2,1.4,4.5c0,2.3-0.8,3.5-1.4,4.5C96.1,681.7,95.7,682.4,95.7,683.9z M86.5,683.9h-2.8c0-2.3,0.8-3.5,1.4-4.5
		c0.5-0.9,1-1.6,1-3.1c0-1.5-0.4-2.2-1-3.1c-0.6-1-1.4-2.2-1.4-4.5c0-2.3,0.8-3.5,1.4-4.5c0.5-0.9,1-1.6,1-3.1h2.8
		c0,2.3-0.8,3.5-1.4,4.5c-0.5,0.9-1,1.6-1,3.1c0,1.5,0.4,2.2,1,3.1c0.6,1,1.4,2.2,1.4,4.5c0,2.3-0.8,3.5-1.4,4.5
		C86.9,681.7,86.5,682.4,86.5,683.9z"/>
	<g>
		<path fill="#4A5160" d="M113.9,698.9c-2,5.2-5.3,9.5-9.4,12.6H77.2c-4.1-3.1-7.4-7.5-9.4-12.6h-3c2.3,6.2,6.1,11.5,11.2,15.2
			l0.4,0.3h29l0.4-0.3c5-3.6,8.9-8.9,11.2-15.2H113.9z"/>
	</g>
	<path fill="#4A5160" d="M118.5,696.3H63.2c-2.6,0-4.7-2.1-4.7-4.7c0-2.6,2.1-4.7,4.7-4.7h55.3c2.6,0,4.7,2.1,4.7,4.7
		C123.2,694.2,121.1,696.3,118.5,696.3z M63.2,689.7c-1,0-1.9,0.8-1.9,1.9c0,1,0.8,1.9,1.9,1.9h55.3c1,0,1.9-0.8,1.9-1.9
		c0-1-0.8-1.9-1.9-1.9H63.2z"/>
</g>
<path fill="none" d="M-85.8,272.7v-8.5c-1.2,1.1-1.9,2.6-1.9,4.3C-87.7,270.1-87,271.7-85.8,272.7z"/>
<path fill="none" d="M-35,267.4c0-2.8-1.6-5.4-4-6.6V274C-36.6,272.8-35,270.2-35,267.4z"/>
<path fill="none" d="M-30.9,531.2c2-2,3.2-4.5,3.5-7.2c-2.7,0.3-5.2,1.5-7.2,3.5c-2,2-3.2,4.5-3.5,7.2
	C-35.4,534.4-32.9,533.2-30.9,531.2L-30.9,531.2z"/>
<path fill="#2D3244" d="M-17,551.9c-2.5-2.5-6.6-2.5-9.2,0l-6.9,6.9c-0.4-2.9-2.8-5.1-5.8-5.1l-12.7,0l-0.5,0
	c-3.6-1.3-6.7-2-9.6-2.1c-6.7-0.3-12.6,2.6-19.5,9.6c-1.1,1.1-2.1,2-3,2.9c-2.2,2.1-3.8,3.5-3.8,3.6l1.9,2.1
	c0.1-0.1,1.7-1.5,3.9-3.6c0.9-0.9,1.9-1.9,3-2.9c6.5-6.5,11.5-9,17.4-8.7c2.6,0.1,5.6,0.8,9,2.1l0.2,0.1l1,0l12.7,0
	c1.7,0,3.1,1.4,3.1,3.1c0,1.7-1.4,3.1-3.1,3.1l-9.9,0l-2.8,0l-0.8,0l0,2.8l0.8,0l2.8,0l9.9,0c0.3,0,0.6,0,0.8-0.1
	c1.5-0.1,2.9-0.7,4.1-1.7l9.7-9.7c1.4-1.4,3.8-1.4,5.2,0c0.7,0.7,1.1,1.6,1.1,2.6c0,1-0.4,1.9-1.1,2.6c-0.1,0.1-9.6,9.6-11.3,11.3
	c-2,1.9-3.6,2.9-6.3,3c-1.3,0-8.2,0-14.9,0c-4.2,0-8.3,0-10.9,0l-2.7,0c-2.7,0-5.8,1.1-8.5,3.2c-0.5,0.4-1.1,0.8-1.6,1.3
	c-0.2,0.2-0.8,0.6-1.1,0.9l1.7,2.2c0.1-0.1,0.9-0.7,1.3-1c0.4-0.4,0.9-0.8,1.3-1.1c2.3-1.7,4.7-2.6,6.9-2.6l2.7,0
	c2.6,0,6.7,0,10.9,0c6.7,0,13.7,0,15,0c3.6,0,5.8-1.5,8.2-3.7c1.8-1.7,11-10.9,11.4-11.3c1.2-1.2,1.9-2.9,1.9-4.6
	C-15.1,554.8-15.8,553.1-17,551.9z"/>
<path fill="#4A5160" d="M-34,547.5C-34,547.5-34,547.5-34,547.5c-0.9-2.7-3.3-4.7-6.2-5.1v-4.8l0.5,0c0,0,0.1,0,0.2,0
	c4,0,7.7-1.5,10.5-4.4c0,0,0,0,0,0c2.8-2.8,4.4-6.6,4.4-10.7l0-1.4l-1.4,0c-4,0-7.8,1.5-10.7,4.4c-1.6,1.6-2.7,3.4-3.4,5.4
	c0-3.9-1.6-7.6-4.3-10.4c-2-2-4.5-3.3-7.1-3.9c-1.1-0.3-2.3-0.4-3.5-0.4h-1.4l0,1.4c0,4,1.5,7.8,4.4,10.7c0.2,0.2,0.4,0.4,0.6,0.5
	c2.4,2.2,5.4,3.5,8.7,3.8v10c-1.9,0.4-3.5,1.5-4.7,3.1c-0.4-0.1-0.9-0.1-1.3-0.1c-0.9,0-1.9,0.2-2.7,0.5c-1.8,0.7-3.3,2-4.2,3.7
	l2.8,0.8c0.4-0.5,0.9-1,1.4-1.4c0.8-0.5,1.7-0.8,2.7-0.8c0.5,0,1,0.1,1.5,0.2l1.1,0.4l0.5-1.1c0.8-1.7,2.5-2.7,4.4-2.7
	c2.4,0,4.5,1.7,4.9,4.2l0.2,1.4l1.4-0.2c0.3-0.1,0.6-0.1,0.8-0.1c1.5,0,2.9,0.7,3.8,1.8l2-1.9C-29.5,548.6-31.6,547.5-34,547.5z
	 M-34.7,527.5c2-2,4.5-3.2,7.2-3.5c-0.3,2.7-1.5,5.2-3.5,7.2v0c-2,2-4.5,3.2-7.2,3.5C-37.8,532-36.6,529.5-34.7,527.5z M-50.2,526.2
	c-0.5-0.5-1-1.1-1.4-1.7c-1.1-1.6-1.8-3.5-2.1-5.5c0.7,0.1,1.4,0.2,2.1,0.4c1.9,0.6,3.7,1.6,5.2,3.1c2,2,3.2,4.5,3.5,7.2
	C-45.7,529.4-48.2,528.2-50.2,526.2z"/>
<polygon fill="#2D3244" points="-27.6,-29.8 -27.6,-27 -25.5,-27 -25.5,12.6 -51.6,12.6 -77.6,12.6 -77.6,-27 -75.7,-27 
	-75.7,-29.8 -80.4,-29.8 -80.4,15.4 -51.6,15.4 -22.7,15.4 -22.7,-29.8 "/>
<g>
	<path fill="#4A5160" d="M-46.6-32.3c-2,0-3.8,0.9-5,2.4c0,0,0,0,0,0c-1.2-1.5-3-2.4-5-2.4H-73V5.5h16.4c2,0,3.6,1.6,3.6,3.6h1.4
		h1.4c0-2,1.6-3.6,3.6-3.6h16.4v-37.8H-46.6z M-33,2.7h-13.6c-2,0-3.8,0.9-5,2.4c0,0,0,0,0,0c-1.2-1.5-3-2.4-5-2.4h-13.6v-32.2h13.6
		c2,0,3.6,1.6,3.6,3.6h1.4h1.4c0-2,1.6-3.6,3.6-3.6H-33V2.7z"/>
	<polygon fill="#4A5160" points="-53,-19.8 -53,-4.5 -51.6,-4.5 -50.2,-4.5 -50.2,-19.8 -51.6,-19.8 	"/>
</g>
<path fill="#2D3244" d="M-27.6,274.7l1.5,2.2c3.1-2.2,4.9-5.8,4.9-9.6c0-3.8-1.8-7.3-4.8-9.5l-1.6,2.1c2.4,1.7,3.8,4.5,3.8,7.4
	C-23.8,270.2-25.2,273-27.6,274.7z"/>
<path fill="#2D3244" d="M-15.5,267.3c0,5.5-2.7,10.8-7.2,14l1.6,2.2c5.2-3.7,8.3-9.8,8.3-16.1c0-6.3-3.1-12.3-8.2-16.1l-1.6,2.1
	C-18.1,256.6-15.5,261.8-15.5,267.3z"/>
<path fill="#4A5160" d="M-70.9,294.6c-0.2,0-0.4-0.1-0.5-0.4l-4.7-12.8H-79l5.1,13.7c0.5,1.3,1.7,2.1,3,2.1h7.5
	c1.7,0,2.7-1.7,2.7-3.2c0-2.3-1-4.4-3-6c-0.3-0.3-1.3-1.1-1.6-1.5l0,0c-0.1-0.1-0.1-0.3-0.1-0.5c0-0.2,0-0.5,0.1-0.8
	c0.1-0.5,0.1-1,0.2-1.8c0-0.7-0.1-1.4-0.3-2h-2.9c0.1,0.1,0.1,0.3,0.2,0.4c0.1,0.2,0.1,0.3,0.2,0.4c0.2,0.5,0.2,0.9,0.2,1.2
	c0,0.5-0.1,1-0.1,1.4c-0.1,0.4-0.1,0.8-0.1,1.3c0,0.3,0,0.8,0.2,1.3c0.2,0.8,0.9,1.4,2.4,2.7c1.4,1.2,2.1,2.5,2.1,4
	c0,0.2-0.1,0.5-0.2,0.6H-70.9z"/>
<path fill="#4A5160" d="M-39,257.8v-15.1l-2.2,1.9c-0.5,0.4-1.1,1-1.8,1.6c-2.2,1.9-5.3,4.7-8.6,7c-3.7,2.6-7.8,4.8-11.4,4.8h-20.4
	c-1.3,0-2.4,1.1-2.4,2.4v0.6c-2.8,1.5-4.5,4.3-4.5,7.5c0,3.2,1.8,6,4.5,7.5v0.5c0,1.3,1.1,2.4,2.4,2.4h1.5v0h17.1v0h1.9
	c2.4,0,6.1,0.8,11.4,4c2.9,1.7,6.4,4.2,10.4,7.6l2.2,1.9v-15.3c4-1.4,6.7-5.2,6.7-9.5C-32.3,263.1-35.1,259.3-39,257.8z
	 M-85.8,272.7c-1.2-1.1-1.9-2.6-1.9-4.3c0-1.7,0.7-3.2,1.9-4.3V272.7z M-41.7,286.5c-3.5-2.9-6.8-5.1-9.9-6.8
	c-3.7-2.1-7.1-3.2-10.1-3.5v-0.1h-2.7v0h-3.6h-13h-2.2v-15.5h18.8v12.8h2.7v-12.9c3.3-0.4,6.8-2,10.1-4.2c3.8-2.5,7.4-5.6,9.9-7.8
	V286.5z M-39,274v-13.3c2.4,1.3,4,3.8,4,6.6C-35,270.2-36.6,272.8-39,274z"/>
<g>
	<path fill="#2D3244" d="M1093.9,578.9c-7.4,0-13.5-6.1-13.5-13.5v-5.9h2.8v5.9c0,5.9,4.8,10.7,10.7,10.7c5.9,0,10.7-4.8,10.7-10.7
		V564h2.8v1.4C1107.4,572.8,1101.3,578.9,1093.9,578.9z"/>
	<path fill="#2D3244" d="M1081.6,556.7c-7.8,0-13.6-1.8-16.7-10.7l0-0.1l-2.4-8.9c-1.5-5.9,0.7-11.5,5.4-13.9l1.2-0.6l1.3,2.5
		l-1.2,0.6c-3.5,1.8-5.1,6.1-4,10.7l2.4,8.8c2.6,7.4,7,8.7,14.1,8.7c7.1,0,11.4-1.4,14.1-8.7l2.4-8.9c1.1-4.5-0.4-8.7-3.8-10.6
		l-1.2-0.7l1.3-2.5l1.2,0.7c4.5,2.5,6.6,8,5.2,13.7l-2.5,9C1095.2,554.9,1089.6,556.7,1081.6,556.7z"/>
	<path fill="#4A5160" d="M1071.6,527.7c-2.7,0-4.8-2.2-4.8-4.8c0-2.7,2.2-4.8,4.8-4.8c2.7,0,4.8,2.2,4.8,4.8
		C1076.4,525.6,1074.3,527.7,1071.6,527.7z M1071.6,520.9c-1.1,0-2,0.9-2,2c0,1.1,0.9,2,2,2c1.1,0,2-0.9,2-2
		C1073.6,521.8,1072.7,520.9,1071.6,520.9z"/>
	<path fill="#4A5160" d="M1106.2,566.7c-3.9,0-7.1-3.2-7.1-7.1c0-3.9,3.2-7.1,7.1-7.1c3.9,0,7.1,3.2,7.1,7.1
		C1113.3,563.5,1110.1,566.7,1106.2,566.7z M1106.2,555.2c-2.4,0-4.3,1.9-4.3,4.3c0,2.4,1.9,4.3,4.3,4.3c2.4,0,4.3-1.9,4.3-4.3
		C1110.5,557.2,1108.5,555.2,1106.2,555.2z"/>
	<path fill="#4A5160" d="M1091.9,527.7c-2.7,0-4.8-2.2-4.8-4.8c0-2.7,2.2-4.8,4.8-4.8c2.7,0,4.8,2.2,4.8,4.8
		C1096.7,525.6,1094.6,527.7,1091.9,527.7z M1091.9,520.9c-1.1,0-2,0.9-2,2c0,1.1,0.9,2,2,2c1.1,0,2-0.9,2-2
		C1093.9,521.8,1093,520.9,1091.9,520.9z"/>
</g>
<g>
	<path fill="#4A5160" d="M1380.8,522.8h-4.7c0.3-0.6,0.4-1.2,0.4-1.8c0-2.2-1.8-4-4-4c-2.2,0-4,1.8-4,4c0,0.7,0.2,1.3,0.4,1.8h-4.6
		c-2.3,0-4.1,1.8-4.1,4.1v7.5h24.6v-7.5C1384.9,524.7,1383,522.8,1380.8,522.8z M1372.5,519.3c0.9,0,1.7,0.8,1.7,1.7
		c0,0.9-0.8,1.7-1.7,1.7c-0.9,0-1.7-0.8-1.7-1.7C1370.8,520.1,1371.6,519.3,1372.5,519.3z M1382.5,532.1h-19.9v-5.2
		c0-1,0.8-1.7,1.7-1.7h16.4c1,0,1.7,0.8,1.7,1.7V532.1z"/>
	<polygon fill="#4A5160" points="1378,554.2 1378,557.6 1367,557.6 1367,546.6 1378,546.6 1378,547.6 1373.1,552.5 1370.5,549.9 
		1368.8,551.6 1373.1,555.8 1375,554 1375,554 1382,546.9 1380.4,545.3 1380.4,544.2 1364.7,544.2 1364.7,559.9 1380.4,559.9 
		1380.4,551.9 	"/>
	<g>
		<polygon fill="#2D3244" points="1388.6,572.7 1356.4,572.7 1356.4,531.9 1357.8,531.9 1357.8,529.6 1354.1,529.6 1354.1,575.1 
			1390.9,575.1 1390.9,529.6 1387.3,529.6 1387.3,531.9 1388.6,531.9 		"/>
		<polygon fill="#2D3244" points="1387,524.6 1387.3,527 1393.3,527 1393.3,577.7 1351.8,577.7 1351.8,527 1357.8,527 1358.2,524.6 
			1349.4,524.6 1349.4,580 1395.6,580 1395.6,524.6 		"/>
	</g>
</g>
<g>
	<path fill="#2D3244" d="M1065.4-31.3c-5.8,5.8-7.3,14.5-4.2,21.8l2.1-2.2c-2.1-6.1-0.7-13,4-17.7c5.1-5.1,12.9-6.5,19.3-3.2
		l1.3-2.5C1080.5-38.9,1071.4-37.3,1065.4-31.3z"/>
</g>
<path fill="none" stroke="#444444" stroke-width="2.8" stroke-linecap="square" stroke-miterlimit="10" d="M1092.4-30.4"/>
<path fill="#2D3244" d="M1110.6-3.9l-13.5-14.3l-2,1.9L1108.6-2c0.8,0.9,0.8,2.3-0.1,3.1l-0.1,0.1c-0.9,0.9-2.3,0.9-3.2,0l-5.7-5.7
	l-2,2l5.7,5.7c0.9,0.9,0.9,2.3,0,3.2c-0.9,0.9-2.4,0.9-3.2,0l-5.7-5.7l-2,2l5.7,5.7c0.9,0.9,0.9,2.3,0,3.2c-0.9,0.9-2.3,0.9-3.2,0
	c0,0,0,0-0.1-0.1l-4.7-4.7l0,0l-0.6-0.6l-2,2l5.3,5.3c0,0,0,0,0,0c0.8,0.9,0.8,2.3-0.1,3.1c-0.9,0.9-2.3,0.9-3.2,0l-3.6-3.6l-2,2
	l3.6,3.6c1,1,2.3,1.5,3.6,1.5c1.3,0,2.6-0.5,3.6-1.5c1-1,1.5-2.3,1.5-3.7c0.1,0,0.1,0,0.2,0c1.3,0,2.6-0.5,3.6-1.5
	c1-1,1.5-2.4,1.5-3.7c0,0,0.1,0,0.1,0c1.4,0,2.6-0.5,3.6-1.5c1-1,1.5-2.4,1.5-3.7c0,0,0.1,0,0.1,0c1.3,0,2.6-0.5,3.6-1.5l0.1-0.1
	C1112.4,1.2,1112.5-1.9,1110.6-3.9z"/>
<path fill="#4A5160" d="M1088.6,5.2c-1-1-2.4-1.5-3.7-1.5c0-1.3-0.4-2.7-1.5-3.7c-1-1-2.4-1.5-3.7-1.5c0-1.3-0.4-2.7-1.5-3.7v0
	c-1-1-2.4-1.5-3.7-1.5c0-1.3-0.4-2.7-1.5-3.7c-2-2-5.2-2-7.2,0l-3.9,3.9c-1,1-1.5,2.2-1.5,3.6c0,1.4,0.5,2.6,1.5,3.6
	c1,1,2.3,1.5,3.6,1.5c0,0,0.1,0,0.1,0c0,1.3,0.4,2.7,1.5,3.7c1,1,2.3,1.5,3.6,1.5c0,0,0.1,0,0.1,0c0,1.3,0.4,2.7,1.5,3.7
	c1,1,2.3,1.5,3.6,1.5c0,0,0.1,0,0.1,0c0,1.3,0.4,2.7,1.5,3.7c1,1,2.3,1.5,3.6,1.5s2.6-0.5,3.6-1.5l3.9-3.9
	C1090.6,10.4,1090.6,7.2,1088.6,5.2z M1063.9-1.3c-0.4-0.4-0.7-1-0.7-1.6c0-0.6,0.2-1.2,0.7-1.6l3.9-3.9c0.4-0.4,1-0.7,1.6-0.7
	c0.6,0,1.2,0.2,1.6,0.7c0.9,0.9,0.9,2.3,0,3.2l-3.9,3.9C1066.2-0.4,1064.8-0.4,1063.9-1.3z M1069.1,3.9c-0.9-0.9-0.9-2.3,0-3.2
	l3.9-3.9c0.4-0.4,1-0.7,1.6-0.7c0.6,0,1.2,0.2,1.6,0.7c0.9,0.9,0.9,2.3,0,3.2l-3.9,3.9C1071.4,4.8,1070,4.8,1069.1,3.9z M1074.3,9.1
	c-0.9-0.9-0.9-2.3,0-3.2l3.9-3.9c0.4-0.4,1-0.7,1.6-0.7c0.6,0,1.2,0.2,1.6,0.7c0.9,0.9,0.9,2.3,0,3.2l-3.9,3.9
	C1076.6,10,1075.2,10,1074.3,9.1z M1086.6,10.4l-3.9,3.9c-0.9,0.9-2.3,0.9-3.2,0c-0.9-0.9-0.9-2.3,0-3.2l3.9-3.9
	c0.4-0.4,1-0.7,1.6-0.7c0.6,0,1.2,0.2,1.6,0.7C1087.5,8.1,1087.5,9.5,1086.6,10.4z"/>
<g>
	<path fill="#4A5160" d="M1099.9-20.8c-5.7,5.7-16.3-0.2-16.4-0.2l-0.9-0.5l-0.8,0.8c-3.9,3.9-7.6,3.7-9.6,3.1l11.6-11.6
		c6.6-6.6,17.4-6.6,24,0c5.7,5.7,6.5,14.5,2.4,21l1.9,2.2c5.3-7.7,4.5-18.3-2.3-25.2c-7.7-7.7-20.3-7.7-28,0L1067.6-17l1.4,0.9
		c0.1,0.1,1.9,1.2,4.6,1.5c2.3,0.2,5.8-0.3,9.4-3.5c3,1.5,12.7,5.4,18.8-0.7l1-1l-2-2L1099.9-20.8z"/>
</g>
<rect x="1369.9" y="-7.2" fill="#4A5160" width="5.3" height="2.8"/>
<polygon fill="#4A5160" points="1379.2,22.1 1376.4,22.1 1376.4,11.5 1368.6,11.5 1368.6,22.1 1365.8,22.1 1365.8,8.7 1379.2,8.7 
	"/>
<rect x="1353.9" y="8.7" fill="#4A5160" width="5.3" height="2.8"/>
<rect x="1385.8" y="8.7" fill="#4A5160" width="5.3" height="2.8"/>
<path fill="#2D3244" d="M1387.2-1.9v-9.9l-13.3-10.6v-5.9h10.6V-39h-13.4v16.6l-13.3,10.6v9.9h-13.3v24h55.8v-24H1387.2z
	 M1373.9-36.2h7.8v5.2h-7.8V-36.2z M1397.6,19.3h-50.2V0.9h13.3v-11.3l11.9-9.5l11.9,9.5V0.9h13.3V19.3z"/>
<g>
	<path fill="#2D3244" d="M1107.6,264.5h-1.5c-1-7.9-7-14.2-14.6-15.8v-5.5h0.4v-2.8h-2.7v-6.9h-2.8v6.9h-2.8v2.8h0.4v5.5
		c-7.7,1.6-13.6,7.9-14.6,15.8h-1.5v2.8h1.3l0,0h37.2l0,0h1.3V264.5z M1086.8,243.3h1.8v5.1c-0.3,0-0.6,0-0.9,0c-0.3,0-0.6,0-0.9,0
		V243.3z M1087.7,251.2c7.8,0,14.4,5.8,15.5,13.4h-31.1C1073.3,256.9,1079.8,251.2,1087.7,251.2z"/>
	<g>
		<polygon fill="#4A5160" points="1067.8,283.4 1070.6,283.4 1070.6,272.9 1077,272.9 1077,283.4 1079.8,283.4 1079.8,272.9 
			1086.3,272.9 1086.3,283.4 1089.1,283.4 1089.1,272.9 1095.5,272.9 1095.5,283.4 1098.3,283.4 1098.3,272.9 1104.7,272.9 
			1104.7,283.4 1107.5,283.4 1107.5,272.9 1109.7,272.9 1109.7,270.1 1065.7,270.1 1065.7,272.9 1067.8,272.9 		"/>
		<polygon fill="#4A5160" points="1061.8,286.2 1061.8,289 1063.6,289 1063.6,300.8 1066.4,300.8 1066.4,289 1072.7,289 
			1072.7,300.8 1075.5,300.8 1075.5,289 1081.7,289 1081.7,300.8 1084.5,300.8 1084.5,289 1090.8,289 1090.8,300.8 1093.6,300.8 
			1093.6,289 1099.9,289 1099.9,300.8 1102.7,300.8 1102.7,289 1108.9,289 1108.9,300.8 1111.7,300.8 1111.7,289 1113.5,289 
			1113.5,286.2 		"/>
		<rect x="1061.7" y="303.6" fill="#4A5160" width="51.7" height="2.8"/>
	</g>
</g>
<g>
	<path fill="#2D3244" d="M1377.3,266.2h-2.8c0-2.3,0.8-3.5,1.4-4.5c0.5-0.9,1-1.6,1-3.1c0-1.5-0.4-2.2-1-3.1c-0.6-1-1.4-2.2-1.4-4.5
		c0-2.3,0.8-3.5,1.4-4.5c0.5-0.9,1-1.6,1-3.1h2.8c0,2.3-0.8,3.5-1.4,4.5c-0.5,0.9-1,1.6-1,3.1c0,1.5,0.4,2.2,1,3.1
		c0.6,1,1.4,2.2,1.4,4.5c0,2.3-0.8,3.5-1.4,4.5C1377.7,264,1377.3,264.7,1377.3,266.2z M1368.1,266.2h-2.8c0-2.3,0.8-3.5,1.4-4.5
		c0.5-0.9,1-1.6,1-3.1c0-1.5-0.4-2.2-1-3.1c-0.6-1-1.4-2.2-1.4-4.5c0-2.3,0.8-3.5,1.4-4.5c0.5-0.9,1-1.6,1-3.1h2.8
		c0,2.3-0.8,3.5-1.4,4.5c-0.5,0.9-1,1.6-1,3.1c0,1.5,0.4,2.2,1,3.1c0.6,1,1.4,2.2,1.4,4.5c0,2.3-0.8,3.5-1.4,4.5
		C1368.5,264,1368.1,264.7,1368.1,266.2z"/>
	<g>
		<path fill="#4A5160" d="M1395.5,281.3c-2,5.2-5.3,9.5-9.4,12.6h-27.2c-4.1-3.1-7.4-7.5-9.4-12.6h-3c2.3,6.2,6.1,11.5,11.2,15.2
			l0.4,0.3h29l0.4-0.3c5-3.6,8.9-8.9,11.2-15.2H1395.5z"/>
	</g>
	<path fill="#4A5160" d="M1400.1,278.6h-55.3c-2.6,0-4.7-2.1-4.7-4.7c0-2.6,2.1-4.7,4.7-4.7h55.3c2.6,0,4.7,2.1,4.7,4.7
		C1404.8,276.5,1402.7,278.6,1400.1,278.6z M1344.9,272c-1,0-1.9,0.8-1.9,1.9c0,1,0.8,1.9,1.9,1.9h55.3c1,0,1.9-0.8,1.9-1.9
		c0-1-0.8-1.9-1.9-1.9H1344.9z"/>
</g>
<g>
	<path fill="#2D3244" d="M1207,163.1l-1.7-2.2c0.3-0.2,0.9-0.7,1.1-0.9c0.5-0.5,1-0.9,1.6-1.3c2.8-2,5.8-3.2,8.5-3.2l2.7,0
		c6.8,0,23.7,0,25.8,0c2.7,0,4.3-1,6.3-3c1.7-1.6,11.2-11.2,11.3-11.3c0.7-0.7,1.1-1.6,1.1-2.6c0-1-0.4-1.9-1.1-2.6
		c-1.4-1.4-3.8-1.4-5.2,0l-9.7,9.7c-1.2,1.1-2.6,1.7-4.1,1.7c-0.3,0-0.5,0.1-0.8,0.1l-9.9,0l-3.6,0l0-2.8l3.6,0l9.9,0
		c1.7,0,3.1-1.4,3.1-3.1c0-1.7-1.4-3.1-3.1-3.1l-13.7,0l-0.2-0.1c-3.4-1.3-6.3-1.9-9-2.1c-5.9-0.3-11,2.3-17.4,8.7
		c-1.1,1.1-2.1,2.1-3,2.9c-2.3,2.2-3.9,3.6-3.9,3.6l-1.9-2.1c0,0,1.6-1.4,3.8-3.6c0.9-0.9,1.9-1.8,3-2.9c7-7,12.8-9.8,19.5-9.6
		c2.9,0.1,6,0.8,9.6,2.1l13.2,0c3,0,5.4,2.2,5.8,5.1l6.9-6.9c2.5-2.5,6.6-2.5,9.2,0c1.2,1.2,1.9,2.9,1.9,4.6c0,1.7-0.7,3.4-1.9,4.6
		c-0.4,0.4-9.6,9.6-11.4,11.3c-2.3,2.2-4.6,3.7-8.2,3.7c-2.1,0-19.1,0-25.8,0l-2.7,0c-2.1,0-4.6,0.9-6.9,2.6
		c-0.5,0.3-0.9,0.7-1.3,1.1C1207.9,162.4,1207.1,163.1,1207,163.1z"/>
	<path fill="none" stroke="#444444" stroke-width="2.8" stroke-miterlimit="10" d="M1240.8,140.5"/>
	<path fill="#4A5160" d="M1247.7,129.8C1247.7,129.8,1247.7,129.8,1247.7,129.8c-0.9-2.7-3.3-4.7-6.2-5.1v-4.8l0.5,0
		c0,0,0.1,0,0.2,0c4,0,7.7-1.5,10.5-4.4c0,0,0,0,0,0c2.8-2.8,4.4-6.6,4.4-10.7l0-1.4l-1.4,0c-4,0-7.8,1.5-10.7,4.4
		c-1.6,1.6-2.7,3.4-3.4,5.4c0-3.9-1.6-7.6-4.3-10.4c-2.9-2.8-6.7-4.4-10.7-4.4h-1.4l0,1.4c0,4,1.5,7.8,4.4,10.7
		c2.5,2.5,5.7,4,9.2,4.3v10c-1.9,0.4-3.5,1.5-4.7,3.1c-0.4-0.1-0.9-0.1-1.3-0.1c-3,0-5.6,1.7-6.9,4.2l2.8,0.8
		c0.9-1.3,2.4-2.2,4.1-2.2c0.5,0,1,0.1,1.5,0.2l1.1,0.4l0.5-1.1c0.8-1.7,2.5-2.7,4.4-2.7c2.4,0,4.5,1.7,4.9,4.2l0.2,1.4l1.4-0.2
		c0.3-0.1,0.6-0.1,0.8-0.1c1.5,0,2.9,0.7,3.8,1.8l2-1.9C1252.1,130.9,1250,129.8,1247.7,129.8z M1247,109.8c2-2,4.5-3.2,7.2-3.5
		c-0.3,2.7-1.5,5.2-3.5,7.2v0c-2,2-4.5,3.2-7.2,3.5C1243.8,114.3,1245,111.8,1247,109.8z M1231.5,108.5c-2-2-3.2-4.5-3.5-7.2
		c2.7,0.3,5.2,1.5,7.2,3.5c2,2,3.2,4.5,3.5,7.2C1236,111.7,1233.4,110.5,1231.5,108.5z"/>
</g>
<g>
	<path fill="#2D3244" d="M1521.2,161.2c-7.4,0-13.5-6.1-13.5-13.5v-5.9h2.8v5.9c0,5.9,4.8,10.7,10.7,10.7c5.9,0,10.7-4.8,10.7-10.7
		v-1.4h2.8v1.4C1534.7,155.1,1528.6,161.2,1521.2,161.2z"/>
	<path fill="#2D3244" d="M1508.9,139c-7.8,0-13.6-1.8-16.7-10.7l0-0.1l-2.4-8.9c-1.5-5.9,0.7-11.5,5.4-13.9l1.2-0.6l1.3,2.5
		l-1.2,0.6c-3.5,1.8-5.1,6.1-4,10.7l2.4,8.8c2.6,7.4,7,8.7,14.1,8.7c7.1,0,11.4-1.4,14.1-8.7l2.4-8.9c1.1-4.5-0.4-8.7-3.8-10.6
		l-1.2-0.7l1.3-2.5l1.2,0.7c4.5,2.5,6.6,8,5.2,13.7l-2.5,9C1522.5,137.2,1516.9,139,1508.9,139z"/>
	<path fill="#4A5160" d="M1498.9,110c-2.7,0-4.8-2.2-4.8-4.8c0-2.7,2.2-4.8,4.8-4.8c2.7,0,4.8,2.2,4.8,4.8
		C1503.7,107.9,1501.6,110,1498.9,110z M1498.9,103.2c-1.1,0-2,0.9-2,2c0,1.1,0.9,2,2,2c1.1,0,2-0.9,2-2
		C1500.9,104.1,1500,103.2,1498.9,103.2z"/>
	<path fill="#4A5160" d="M1533.5,149c-3.9,0-7.1-3.2-7.1-7.1c0-3.9,3.2-7.1,7.1-7.1c3.9,0,7.1,3.2,7.1,7.1
		C1540.6,145.8,1537.4,149,1533.5,149z M1533.5,137.5c-2.4,0-4.3,1.9-4.3,4.3c0,2.4,1.9,4.3,4.3,4.3c2.4,0,4.3-1.9,4.3-4.3
		C1537.8,139.5,1535.9,137.5,1533.5,137.5z"/>
	<path fill="#4A5160" d="M1519.2,110c-2.7,0-4.8-2.2-4.8-4.8c0-2.7,2.2-4.8,4.8-4.8c2.7,0,4.8,2.2,4.8,4.8
		C1524,107.9,1521.9,110,1519.2,110z M1519.2,103.2c-1.1,0-2,0.9-2,2c0,1.1,0.9,2,2,2c1.1,0,2-0.9,2-2
		C1521.3,104.1,1520.3,103.2,1519.2,103.2z"/>
</g>
<g>
	<path fill="#4A5160" d="M953.5,105.1h-4.7c0.3-0.6,0.4-1.2,0.4-1.8c0-2.2-1.8-4-4-4c-2.2,0-4,1.8-4,4c0,0.7,0.2,1.3,0.4,1.8H937
		c-2.3,0-4.1,1.8-4.1,4.1v7.5h24.6v-7.5C957.6,107,955.7,105.1,953.5,105.1z M945.2,101.6c0.9,0,1.7,0.8,1.7,1.7
		c0,0.9-0.8,1.7-1.7,1.7c-0.9,0-1.7-0.8-1.7-1.7C943.5,102.4,944.3,101.6,945.2,101.6z M955.2,114.4h-19.9v-5.2c0-1,0.8-1.7,1.7-1.7
		h16.4c1,0,1.7,0.8,1.7,1.7V114.4z"/>
	<polygon fill="#4A5160" points="950.7,136.5 950.7,139.9 939.7,139.9 939.7,128.9 950.7,128.9 950.7,129.9 945.8,134.8 
		943.2,132.2 941.5,133.9 945.8,138.2 947.6,136.3 947.6,136.3 954.7,129.2 953,127.6 953,126.6 937.3,126.6 937.3,142.2 953,142.2 
		953,134.2 	"/>
	<g>
		<polygon fill="#2D3244" points="961.2,155 929.1,155 929.1,114.2 930.5,114.2 930.5,111.9 926.8,111.9 926.8,157.4 963.6,157.4 
			963.6,111.9 959.9,111.9 959.9,114.2 961.2,114.2 		"/>
		<polygon fill="#2D3244" points="959.7,106.9 959.9,109.3 965.9,109.3 965.9,160 924.4,160 924.4,109.3 930.5,109.3 930.9,106.9 
			922.1,106.9 922.1,162.3 968.3,162.3 968.3,106.9 		"/>
	</g>
</g>
<g transform="translate(0, 0)">
	<polygon fill="#2D3244" points="1258.9,433.1 1201.2,433.1 1201.2,387.9 1205.9,387.9 1205.9,390.7 1204,390.7 1204,430.3 
		1256.1,430.3 1256.1,390.7 1254.1,390.7 1254.1,387.9 1258.9,387.9 	"/>
	<path fill="#4A5160" d="M1231.5,426.7h-2.8c0-2-1.6-3.6-3.6-3.6h-16.4v-37.8h16.4c2,0,3.8,0.9,5,2.4c1.2-1.5,3-2.4,5-2.4h16.4v37.8
		h-16.4C1233.1,423.1,1231.5,424.8,1231.5,426.7z M1211.5,420.3h13.6c2,0,3.8,0.9,5,2.4c1.2-1.5,3-2.4,5-2.4h13.6v-32.2h-13.6
		c-2,0-3.6,1.6-3.6,3.6h-2.8c0-2-1.6-3.6-3.6-3.6h-13.6V420.3z"/>
	<rect x="1228.7" y="397.9" fill="#4A5160" width="2.8" height="15.3"/>
</g>
<g>
	<g>
		<path fill="#2D3244" d="M1492.8,386.3c-5.8,5.8-7.3,14.5-4.2,21.8l2.1-2.2c-2.1-6.1-0.7-13,4-17.7c5.1-5.1,12.9-6.5,19.3-3.2
			l1.3-2.5C1507.8,378.8,1498.8,380.3,1492.8,386.3z"/>
	</g>
	<path fill="none" stroke="#444444" stroke-width="2.8" stroke-linecap="square" stroke-miterlimit="10" d="M1519.8,387.3"/>
	<path fill="#2D3244" d="M1537.9,413.8l-13.5-14.3l-2,1.9l13.5,14.3c0.8,0.9,0.8,2.3-0.1,3.1l-0.1,0.1c-0.9,0.9-2.3,0.9-3.2,0
		l-5.7-5.7l-2,2l5.7,5.7c0.9,0.9,0.9,2.3,0,3.2c-0.9,0.9-2.4,0.9-3.2,0l-5.7-5.7l-2,2l5.7,5.7c0.9,0.9,0.9,2.3,0,3.2
		c-0.9,0.9-2.3,0.9-3.2,0c0,0,0,0-0.1-0.1l-4.7-4.7l0,0l-0.6-0.6l-2,2l5.3,5.3c0,0,0,0,0,0c0.8,0.9,0.8,2.3-0.1,3.1
		c-0.9,0.9-2.3,0.9-3.2,0l-3.6-3.6l-2,2l3.6,3.6c1,1,2.3,1.5,3.6,1.5c1.3,0,2.6-0.5,3.6-1.5c1-1,1.5-2.3,1.5-3.7c0.1,0,0.1,0,0.2,0
		c1.3,0,2.6-0.5,3.6-1.5c1-1,1.5-2.4,1.5-3.7c0,0,0.1,0,0.1,0c1.4,0,2.6-0.5,3.6-1.5c1-1,1.5-2.4,1.5-3.7c0,0,0.1,0,0.1,0
		c1.3,0,2.6-0.5,3.6-1.5l0.1-0.1C1539.7,418.9,1539.8,415.8,1537.9,413.8z"/>
	<path fill="#4A5160" d="M1515.9,422.9c-1-1-2.4-1.5-3.7-1.5c0-1.3-0.4-2.7-1.5-3.7c-1-1-2.4-1.5-3.7-1.5c0-1.3-0.4-2.7-1.5-3.7v0
		c-1-1-2.4-1.5-3.7-1.5c0-1.3-0.4-2.7-1.5-3.7c-2-2-5.2-2-7.2,0l-3.9,3.9c-1,1-1.5,2.2-1.5,3.6c0,1.4,0.5,2.6,1.5,3.6
		c1,1,2.3,1.5,3.6,1.5c0,0,0.1,0,0.1,0c0,1.3,0.4,2.7,1.5,3.7c1,1,2.3,1.5,3.6,1.5c0,0,0.1,0,0.1,0c0,1.3,0.4,2.7,1.5,3.7
		c1,1,2.3,1.5,3.6,1.5c0,0,0.1,0,0.1,0c0,1.3,0.4,2.7,1.5,3.7c1,1,2.3,1.5,3.6,1.5s2.6-0.5,3.6-1.5l3.9-3.9
		C1517.9,428.1,1517.9,424.9,1515.9,422.9z M1491.2,416.4c-0.4-0.4-0.7-1-0.7-1.6c0-0.6,0.2-1.2,0.7-1.6l3.9-3.9
		c0.4-0.4,1-0.7,1.6-0.7c0.6,0,1.2,0.2,1.6,0.7c0.9,0.9,0.9,2.3,0,3.2l-3.9,3.9C1493.6,417.3,1492.1,417.3,1491.2,416.4z
		 M1496.4,421.6c-0.9-0.9-0.9-2.3,0-3.2l3.9-3.9c0.4-0.4,1-0.7,1.6-0.7c0.6,0,1.2,0.2,1.6,0.7c0.9,0.9,0.9,2.3,0,3.2l-3.9,3.9
		C1498.8,422.5,1497.3,422.5,1496.4,421.6z M1501.6,426.8c-0.9-0.9-0.9-2.3,0-3.2l3.9-3.9c0.4-0.4,1-0.7,1.6-0.7
		c0.6,0,1.2,0.2,1.6,0.7c0.9,0.9,0.9,2.3,0,3.2l-3.9,3.9C1504,427.7,1502.5,427.7,1501.6,426.8z M1514,428.1l-3.9,3.9
		c-0.9,0.9-2.3,0.9-3.2,0c-0.9-0.9-0.9-2.3,0-3.2l3.9-3.9c0.4-0.4,1-0.7,1.6-0.7c0.6,0,1.2,0.2,1.6,0.7
		C1514.8,425.7,1514.8,427.2,1514,428.1z"/>
	<g>
		<path fill="#4A5160" d="M1527.2,396.9c-5.7,5.7-16.3-0.2-16.4-0.2l-0.9-0.5l-0.8,0.8c-3.9,3.9-7.6,3.7-9.6,3.1l11.6-11.6
			c6.6-6.6,17.4-6.6,24,0c5.7,5.7,6.5,14.5,2.4,21l1.9,2.2c5.3-7.7,4.5-18.3-2.3-25.2c-7.7-7.7-20.3-7.7-28,0l-14.2,14.2l1.4,0.9
			c0.1,0.1,1.9,1.2,4.6,1.5c2.3,0.2,5.8-0.3,9.4-3.5c3,1.5,12.7,5.4,18.8-0.7l1-1l-2-2L1527.2,396.9z"/>
	</g>
</g>
<g transform="translate(0, 0)">
	<rect x="942.5" y="410.5" fill="#4A5160" width="5.3" height="2.8"/>
	<polygon fill="#4A5160" points="951.9,439.8 949.1,439.8 949.1,429.2 941.3,429.2 941.3,439.8 938.5,439.8 938.5,426.4 
		951.9,426.4 	"/>
	<rect x="926.6" y="426.4" fill="#4A5160" width="5.3" height="2.8"/>
	<rect x="958.4" y="426.4" fill="#4A5160" width="5.3" height="2.8"/>
	<path fill="#2D3244" d="M959.8,415.8v-9.9l-13.3-10.6v-5.9h10.6v-10.8h-13.4v16.6l-13.3,10.6v9.9h-13.3v24h55.8v-24H959.8z
		 M946.6,381.5h7.8v5.2h-7.8V381.5z M970.3,437h-50.2v-18.4h13.3v-11.3l11.9-9.5l11.9,9.5v11.3h13.3V437z"/>
</g>
<g>
	<g>
		<path fill="#2D3244" d="M1255.6,675.4l-1.6,2.1c2.4,1.7,3.8,4.5,3.8,7.4c0,2.9-1.4,5.7-3.8,7.4l1.5,2.2c3.1-2.2,4.9-5.8,4.9-9.6
			C1260.5,681.2,1258.7,677.6,1255.6,675.4z"/>
		<path fill="#2D3244" d="M1260.7,668.9l-1.6,2.1c4.4,3.2,7.1,8.5,7.1,13.9c0,5.5-2.7,10.8-7.2,14l1.6,2.2c5.2-3.7,8.3-9.8,8.3-16.1
			C1268.8,678.6,1265.8,672.6,1260.7,668.9z"/>
	</g>
	<path fill="#4A5160" d="M1217.9,705.7c-0.3-0.3-1.3-1.1-1.6-1.5l0,0c-0.1-0.1-0.1-0.3-0.1-0.5c0-0.2,0-0.5,0.1-0.8
		c0.1-0.5,0.1-1,0.2-1.8c0-0.7-0.1-1.4-0.3-2h-2.9c0.1,0.1,0.1,0.3,0.2,0.4c0.1,0.2,0.1,0.3,0.2,0.4c0.2,0.5,0.2,0.9,0.2,1.2
		c0,0.5-0.1,1-0.1,1.4c-0.1,0.4-0.1,0.8-0.1,1.3c0,0.3,0,0.8,0.2,1.3c0.2,0.8,0.9,1.4,2.4,2.7c1.4,1.2,2.1,2.5,2.1,4
		c0,0.2-0.1,0.5-0.2,0.6h-7.4c-0.2,0-0.4-0.1-0.5-0.4l-4.7-12.8h-2.8l5.1,13.7c0.5,1.3,1.7,2.1,3,2.1h7.5c1.7,0,2.7-1.7,2.7-3.2
		C1221,709.5,1219.9,707.4,1217.9,705.7z"/>
	<path fill="#4A5160" d="M1242.6,675.5v-15.1l-2.2,1.9c-0.5,0.4-1.1,1-1.8,1.6c-4.6,4.1-13.2,11.8-20,11.8h-20.4
		c-1.3,0-2.4,1.1-2.4,2.4v0.6c-2.8,1.5-4.5,4.3-4.5,7.5c0,3.2,1.8,6,4.5,7.5v0.5c0,1.3,1.1,2.4,2.4,2.4h1.5v0h17.1v0h1.9
		c3.8,0,10.6,2,21.8,11.6l2.2,1.9v-15.3c4-1.4,6.7-5.2,6.7-9.5C1249.3,680.8,1246.6,677,1242.6,675.5z M1195.8,690.4
		c-1.2-1.1-1.9-2.6-1.9-4.3c0-1.7,0.7-3.2,1.9-4.3V690.4z M1240,704.2c-7.9-6.4-14.6-9.8-20-10.3v-0.1h-2.7v0h-3.6h-13h-2.2v-15.5
		h18.8v12.8h2.7v-12.9c7.2-0.8,15.3-7.8,20-12V704.2z M1242.6,691.7v-13.3c2.4,1.3,4,3.8,4,6.6
		C1246.6,687.9,1245,690.4,1242.6,691.7z"/>
</g>
<g>
	<path fill="#2D3244" d="M1534.9,682.2h-1.5c-1-7.9-7-14.2-14.6-15.8V661h0.4v-2.8h-2.7v-6.9h-2.8v6.9h-2.8v2.8h0.4v5.5
		c-7.7,1.6-13.6,7.9-14.6,15.8h-1.5v2.8h1.3l0,0h37.2l0,0h1.3V682.2z M1514.1,661h1.8v5.1c-0.3,0-0.6,0-0.9,0c-0.3,0-0.6,0-0.9,0
		V661z M1515,668.9c7.8,0,14.4,5.8,15.5,13.4h-31.1C1500.6,674.6,1507.2,668.9,1515,668.9z"/>
	<g>
		<polygon fill="#4A5160" points="1495.1,701.1 1497.9,701.1 1497.9,690.6 1504.4,690.6 1504.4,701.1 1507.2,701.1 1507.2,690.6 
			1513.6,690.6 1513.6,701.1 1516.4,701.1 1516.4,690.6 1522.8,690.6 1522.8,701.1 1525.6,701.1 1525.6,690.6 1532.1,690.6 
			1532.1,701.1 1534.9,701.1 1534.9,690.6 1537,690.6 1537,687.8 1493,687.8 1493,690.6 1495.1,690.6 		"/>
		<polygon fill="#4A5160" points="1489.1,703.9 1489.1,706.7 1490.9,706.7 1490.9,718.5 1493.7,718.5 1493.7,706.7 1500,706.7 
			1500,718.5 1502.8,718.5 1502.8,706.7 1509.1,706.7 1509.1,718.5 1511.9,718.5 1511.9,706.7 1518.1,706.7 1518.1,718.5 
			1520.9,718.5 1520.9,706.7 1527.2,706.7 1527.2,718.5 1530,718.5 1530,706.7 1536.2,706.7 1536.2,718.5 1539,718.5 1539,706.7 
			1540.9,706.7 1540.9,703.9 		"/>
		<rect x="1489" y="721.3" fill="#4A5160" width="51.7" height="2.8"/>
	</g>
</g>
<g>
	<path fill="#2D3244" d="M950,683.9h-2.8c0-2.3,0.8-3.5,1.4-4.5c0.5-0.9,1-1.6,1-3.1c0-1.5-0.4-2.2-1-3.1c-0.6-1-1.4-2.2-1.4-4.5
		c0-2.3,0.8-3.5,1.4-4.5c0.5-0.9,1-1.6,1-3.1h2.8c0,2.3-0.8,3.5-1.4,4.5c-0.5,0.9-1,1.6-1,3.1c0,1.5,0.4,2.2,1,3.1
		c0.6,1,1.4,2.2,1.4,4.5c0,2.3-0.8,3.5-1.4,4.5C950.4,681.7,950,682.4,950,683.9z M940.8,683.9H938c0-2.3,0.8-3.5,1.4-4.5
		c0.5-0.9,1-1.6,1-3.1c0-1.5-0.4-2.2-1-3.1c-0.6-1-1.4-2.2-1.4-4.5c0-2.3,0.8-3.5,1.4-4.5c0.5-0.9,1-1.6,1-3.1h2.8
		c0,2.3-0.8,3.5-1.4,4.5c-0.5,0.9-1,1.6-1,3.1c0,1.5,0.4,2.2,1,3.1c0.6,1,1.4,2.2,1.4,4.5c0,2.3-0.8,3.5-1.4,4.5
		C941.2,681.7,940.8,682.4,940.8,683.9z"/>
	<g>
		<path fill="#4A5160" d="M968.2,698.9c-2,5.2-5.3,9.5-9.4,12.6h-27.2c-4.1-3.1-7.4-7.5-9.4-12.6h-3c2.3,6.2,6.1,11.5,11.2,15.2
			l0.4,0.3h29l0.4-0.3c5-3.6,8.9-8.9,11.2-15.2H968.2z"/>
	</g>
	<path fill="#4A5160" d="M972.8,696.3h-55.3c-2.6,0-4.7-2.1-4.7-4.7c0-2.6,2.1-4.7,4.7-4.7h55.3c2.6,0,4.7,2.1,4.7,4.7
		C977.5,694.2,975.4,696.3,972.8,696.3z M917.6,689.7c-1,0-1.9,0.8-1.9,1.9c0,1,0.8,1.9,1.9,1.9h55.3c1,0,1.9-0.8,1.9-1.9
		c0-1-0.8-1.9-1.9-1.9H917.6z"/>
</g>
<path fill="none" d="M768.5,272.7v-8.5c-1.2,1.1-1.9,2.6-1.9,4.3C766.6,270.1,767.3,271.7,768.5,272.7z"/>
<path fill="none" d="M819.3,267.4c0-2.8-1.6-5.4-4-6.6V274C817.7,272.8,819.3,270.2,819.3,267.4z"/>
<path fill="none" d="M823.4,531.2c2-2,3.2-4.5,3.5-7.2c-2.7,0.3-5.2,1.5-7.2,3.5c-2,2-3.2,4.5-3.5,7.2
	C818.9,534.4,821.4,533.2,823.4,531.2L823.4,531.2z"/>
<path fill="#2D3244" d="M837.3,551.9c-2.5-2.5-6.6-2.5-9.2,0l-6.9,6.9c-0.4-2.9-2.8-5.1-5.8-5.1l-12.7,0l-0.5,0
	c-3.6-1.3-6.7-2-9.6-2.1c-6.7-0.3-12.6,2.6-19.5,9.6c-1.1,1.1-2.1,2-3,2.9c-2.2,2.1-3.8,3.5-3.8,3.6l1.9,2.1
	c0.1-0.1,1.7-1.5,3.9-3.6c0.9-0.9,1.9-1.9,3-2.9c6.5-6.5,11.5-9,17.4-8.7c2.6,0.1,5.6,0.8,9,2.1l0.2,0.1l1,0l12.7,0
	c1.7,0,3.1,1.4,3.1,3.1c0,1.7-1.4,3.1-3.1,3.1l-9.9,0l-2.8,0l-0.8,0l0,2.8l0.8,0l2.8,0l9.9,0c0.3,0,0.6,0,0.8-0.1
	c1.5-0.1,2.9-0.7,4.1-1.7l9.7-9.7c1.4-1.4,3.8-1.4,5.2,0c0.7,0.7,1.1,1.6,1.1,2.6c0,1-0.4,1.9-1.1,2.6c-0.1,0.1-9.6,9.6-11.3,11.3
	c-2,1.9-3.6,2.9-6.3,3c-1.3,0-8.2,0-14.9,0c-4.2,0-8.3,0-10.9,0l-2.7,0c-2.7,0-5.8,1.1-8.5,3.2c-0.5,0.4-1.1,0.8-1.6,1.3
	c-0.2,0.2-0.8,0.6-1.1,0.9l1.7,2.2c0.1-0.1,0.9-0.7,1.3-1c0.4-0.4,0.9-0.8,1.3-1.1c2.3-1.7,4.7-2.6,6.9-2.6l2.7,0
	c2.6,0,6.7,0,10.9,0c6.7,0,13.7,0,15,0c3.6,0,5.8-1.5,8.2-3.7c1.8-1.7,11-10.9,11.4-11.3c1.2-1.2,1.9-2.9,1.9-4.6
	C839.2,554.8,838.5,553.1,837.3,551.9z"/>
<path fill="#4A5160" d="M820.4,547.5C820.4,547.5,820.4,547.5,820.4,547.5c-0.9-2.7-3.3-4.7-6.2-5.1v-4.8l0.5,0c0,0,0.1,0,0.2,0
	c4,0,7.7-1.5,10.5-4.4c0,0,0,0,0,0c2.8-2.8,4.4-6.6,4.4-10.7l0-1.4l-1.4,0c-4,0-7.8,1.5-10.7,4.4c-1.6,1.6-2.7,3.4-3.4,5.4
	c0-3.9-1.6-7.6-4.3-10.4c-2-2-4.5-3.3-7.1-3.9c-1.1-0.3-2.3-0.4-3.5-0.4h-1.4l0,1.4c0,4,1.5,7.8,4.4,10.7c0.2,0.2,0.4,0.4,0.6,0.5
	c2.4,2.2,5.4,3.5,8.7,3.8v10c-1.9,0.4-3.5,1.5-4.7,3.1c-0.4-0.1-0.9-0.1-1.3-0.1c-0.9,0-1.9,0.2-2.7,0.5c-1.8,0.7-3.3,2-4.2,3.7
	l2.8,0.8c0.4-0.5,0.9-1,1.4-1.4c0.8-0.5,1.7-0.8,2.7-0.8c0.5,0,1,0.1,1.5,0.2l1.1,0.4l0.5-1.1c0.8-1.7,2.5-2.7,4.4-2.7
	c2.4,0,4.5,1.7,4.9,4.2l0.2,1.4l1.4-0.2c0.3-0.1,0.6-0.1,0.8-0.1c1.5,0,2.9,0.7,3.8,1.8l2-1.9C824.8,548.6,822.7,547.5,820.4,547.5z
	 M819.7,527.5c2-2,4.5-3.2,7.2-3.5c-0.3,2.7-1.5,5.2-3.5,7.2v0c-2,2-4.5,3.2-7.2,3.5C816.5,532,817.7,529.5,819.7,527.5z
	 M804.2,526.2c-0.5-0.5-1-1.1-1.4-1.7c-1.1-1.6-1.8-3.5-2.1-5.5c0.7,0.1,1.4,0.2,2.1,0.4c1.9,0.6,3.7,1.6,5.2,3.1
	c2,2,3.2,4.5,3.5,7.2C808.6,529.4,806.1,528.2,804.2,526.2z"/>
<polygon fill="#2D3244" points="826.7,-29.8 826.7,-27 828.8,-27 828.8,12.6 802.7,12.6 776.7,12.6 776.7,-27 778.6,-27 
	778.6,-29.8 773.9,-29.8 773.9,15.4 802.7,15.4 831.6,15.4 831.6,-29.8 "/>
<g>
	<path fill="#4A5160" d="M807.7-32.3c-2,0-3.8,0.9-5,2.4c0,0,0,0,0,0c-1.2-1.5-3-2.4-5-2.4h-16.4V5.5h16.4c2,0,3.6,1.6,3.6,3.6h1.4
		h1.4c0-2,1.6-3.6,3.6-3.6h16.4v-37.8H807.7z M821.3,2.7h-13.6c-2,0-3.8,0.9-5,2.4c0,0,0,0,0,0c-1.2-1.5-3-2.4-5-2.4h-13.6v-32.2
		h13.6c2,0,3.6,1.6,3.6,3.6h1.4h1.4c0-2,1.6-3.6,3.6-3.6h13.6V2.7z"/>
	<polygon fill="#4A5160" points="801.3,-19.8 801.3,-4.5 802.7,-4.5 804.1,-4.5 804.1,-19.8 802.7,-19.8 	"/>
</g>
<g>
	<path fill="#2D3244" d="M211.1,804.3c-5.8,5.8-7.3,14.5-4.2,21.8l2.1-2.2c-2.1-6.1-0.7-13,4-17.7c5.1-5.1,12.9-6.5,19.3-3.2
		l1.3-2.5C226.2,796.8,217.1,798.3,211.1,804.3z"/>
</g>
<path fill="none" stroke="#444444" stroke-width="2.8" stroke-linecap="square" stroke-miterlimit="10" d="M238.1,805.3"/>
<path fill="#2D3244" d="M256.3,831.8l-13.5-14.3l-2,1.9l13.5,14.3c0.8,0.9,0.8,2.3-0.1,3.1l-0.1,0.1c-0.9,0.9-2.3,0.9-3.2,0
	l-5.7-5.7l-2,2l5.7,5.7c0.9,0.9,0.9,2.3,0,3.2c-0.9,0.9-2.4,0.9-3.2,0l-5.7-5.7l-2,2l5.7,5.7c0.9,0.9,0.9,2.3,0,3.2
	c-0.9,0.9-2.3,0.9-3.2,0c0,0,0,0-0.1-0.1l-4.7-4.7l0,0l-0.6-0.6l-2,2l5.3,5.3c0,0,0,0,0,0c0.8,0.9,0.8,2.3-0.1,3.1
	c-0.9,0.9-2.3,0.9-3.2,0l-3.6-3.6l-2,2l3.6,3.6c1,1,2.3,1.5,3.6,1.5c1.3,0,2.6-0.5,3.6-1.5c1-1,1.5-2.3,1.5-3.7c0.1,0,0.1,0,0.2,0
	c1.3,0,2.6-0.5,3.6-1.5c1-1,1.5-2.4,1.5-3.7c0,0,0.1,0,0.1,0c1.4,0,2.6-0.5,3.6-1.5c1-1,1.5-2.4,1.5-3.7c0,0,0.1,0,0.1,0
	c1.3,0,2.6-0.5,3.6-1.5l0.1-0.1C258.1,836.9,258.1,833.8,256.3,831.8z"/>
<path fill="#4A5160" d="M234.3,840.8c-1-1-2.4-1.5-3.7-1.5c0-1.3-0.4-2.7-1.5-3.7c-1-1-2.4-1.5-3.7-1.5c0-1.3-0.4-2.7-1.5-3.7v0
	c-1-1-2.4-1.5-3.7-1.5c0-1.3-0.4-2.7-1.5-3.7c-2-2-5.2-2-7.2,0l-3.9,3.9c-1,1-1.5,2.2-1.5,3.6c0,1.4,0.5,2.6,1.5,3.6
	c1,1,2.3,1.5,3.6,1.5c0,0,0.1,0,0.1,0c0,1.3,0.4,2.7,1.5,3.7c1,1,2.3,1.5,3.6,1.5c0,0,0.1,0,0.1,0c0,1.3,0.4,2.7,1.5,3.7
	c1,1,2.3,1.5,3.6,1.5c0,0,0.1,0,0.1,0c0,1.3,0.4,2.7,1.5,3.7c1,1,2.3,1.5,3.6,1.5s2.6-0.5,3.6-1.5l3.9-3.9
	C236.3,846,236.3,842.8,234.3,840.8z M209.6,834.3c-0.4-0.4-0.7-1-0.7-1.6c0-0.6,0.2-1.2,0.7-1.6l3.9-3.9c0.4-0.4,1-0.7,1.6-0.7
	c0.6,0,1.2,0.2,1.6,0.7c0.9,0.9,0.9,2.3,0,3.2l-3.9,3.9C211.9,835.2,210.5,835.2,209.6,834.3z M214.8,839.5c-0.9-0.9-0.9-2.3,0-3.2
	l3.9-3.9c0.4-0.4,1-0.7,1.6-0.7c0.6,0,1.2,0.2,1.6,0.7c0.9,0.9,0.9,2.3,0,3.2l-3.9,3.9C217.1,840.4,215.7,840.4,214.8,839.5z
	 M220,844.7c-0.9-0.9-0.9-2.3,0-3.2l3.9-3.9c0.4-0.4,1-0.7,1.6-0.7c0.6,0,1.2,0.2,1.6,0.7c0.9,0.9,0.9,2.3,0,3.2l-3.9,3.9
	C222.3,845.6,220.9,845.6,220,844.7z M232.3,846l-3.9,3.9c-0.9,0.9-2.3,0.9-3.2,0c-0.9-0.9-0.9-2.3,0-3.2l3.9-3.9
	c0.4-0.4,1-0.7,1.6-0.7c0.6,0,1.2,0.2,1.6,0.7C233.2,843.7,233.2,845.1,232.3,846z"/>
<g>
	<path fill="#4A5160" d="M245.6,814.8c-5.7,5.7-16.3-0.2-16.4-0.2l-0.9-0.5l-0.8,0.8c-3.9,3.9-7.6,3.7-9.6,3.1l11.6-11.6
		c6.6-6.6,17.4-6.6,24,0c5.7,5.7,6.5,14.5,2.4,21l1.9,2.2c5.3-7.7,4.5-18.3-2.3-25.2c-7.7-7.7-20.3-7.7-28,0l-14.2,14.2l1.4,0.9
		c0.1,0.1,1.9,1.2,4.6,1.5c2.3,0.2,5.8-0.3,9.4-3.5c3,1.5,12.7,5.4,18.8-0.7l1-1l-2-2L245.6,814.8z"/>
</g>
<rect x="515.5" y="828.5" fill="#4A5160" width="5.3" height="2.8"/>
<polygon fill="#4A5160" points="524.9,857.8 522.1,857.8 522.1,847.2 514.3,847.2 514.3,857.8 511.5,857.8 511.5,844.4 524.9,844.4 
	"/>
<rect x="499.6" y="844.4" fill="#4A5160" width="5.3" height="2.8"/>
<rect x="531.4" y="844.4" fill="#4A5160" width="5.3" height="2.8"/>
<path fill="#2D3244" d="M532.8,833.8v-9.9l-13.3-10.6v-5.9h10.6v-10.8h-13.4v16.6l-13.3,10.6v9.9h-13.3v24h55.8v-24H532.8z
	 M519.6,799.4h7.8v5.2h-7.8V799.4z M543.3,855h-50.2v-18.4h13.3v-11.3l11.9-9.5l11.9,9.5v11.3h13.3V855z"/>
<g>
	<path fill="#2D3244" d="M352.7,998.8l-1.7-2.2c0.3-0.2,0.9-0.7,1.1-0.9c0.5-0.5,1-0.9,1.6-1.3c2.8-2,5.8-3.2,8.5-3.2l2.7,0
		c6.8,0,23.7,0,25.8,0c2.7,0,4.3-1,6.3-3c1.7-1.6,11.2-11.2,11.3-11.3c0.7-0.7,1.1-1.6,1.1-2.6c0-1-0.4-1.9-1.1-2.6
		c-1.4-1.4-3.8-1.4-5.2,0l-9.7,9.7c-1.2,1.1-2.6,1.7-4.1,1.7c-0.3,0-0.5,0.1-0.8,0.1l-9.9,0l-3.6,0l0-2.8l3.6,0l9.9,0
		c1.7,0,3.1-1.4,3.1-3.1c0-1.7-1.4-3.1-3.1-3.1l-13.7,0l-0.2-0.1c-3.4-1.3-6.3-1.9-9-2.1c-5.9-0.3-11,2.3-17.4,8.7
		c-1.1,1.1-2.1,2.1-3,2.9c-2.3,2.2-3.9,3.6-3.9,3.6l-1.9-2.1c0,0,1.6-1.4,3.8-3.6c0.9-0.9,1.9-1.8,3-2.9c7-7,12.8-9.8,19.5-9.6
		c2.9,0.1,6,0.8,9.6,2.1l13.2,0c3,0,5.4,2.2,5.8,5.1l6.9-6.9c2.5-2.5,6.6-2.5,9.2,0c1.2,1.2,1.9,2.9,1.9,4.6c0,1.7-0.7,3.4-1.9,4.6
		c-0.4,0.4-9.6,9.6-11.4,11.3c-2.3,2.2-4.6,3.7-8.2,3.7c-2.1,0-19.1,0-25.8,0l-2.7,0c-2.1,0-4.6,0.9-6.9,2.6
		c-0.5,0.3-0.9,0.7-1.3,1.1C353.6,998.1,352.8,998.7,352.7,998.8z"/>
	<path fill="none" stroke="#444444" stroke-width="2.8" stroke-miterlimit="10" d="M386.5,976.1"/>
	<path fill="#4A5160" d="M393.4,965.5C393.4,965.5,393.4,965.5,393.4,965.5c-0.9-2.7-3.3-4.7-6.2-5.1v-4.8l0.5,0c0,0,0.1,0,0.2,0
		c4,0,7.7-1.5,10.5-4.4c0,0,0,0,0,0c2.8-2.8,4.4-6.6,4.4-10.7l0-1.4l-1.4,0c-4,0-7.8,1.5-10.7,4.4c-1.6,1.6-2.7,3.4-3.4,5.4
		c0-3.9-1.6-7.6-4.3-10.4c-2.9-2.8-6.7-4.4-10.7-4.4h-1.4l0,1.4c0,4,1.5,7.8,4.4,10.7c2.5,2.5,5.7,4,9.2,4.3v10
		c-1.9,0.4-3.5,1.5-4.7,3.1c-0.4-0.1-0.9-0.1-1.3-0.1c-3,0-5.6,1.7-6.9,4.2l2.8,0.8c0.9-1.3,2.4-2.2,4.1-2.2c0.5,0,1,0.1,1.5,0.2
		l1.1,0.4l0.5-1.1c0.8-1.7,2.5-2.7,4.4-2.7c2.4,0,4.5,1.7,4.9,4.2l0.2,1.4l1.4-0.2c0.3-0.1,0.6-0.1,0.8-0.1c1.5,0,2.9,0.7,3.8,1.8
		l2-1.9C397.8,966.5,395.7,965.5,393.4,965.5z M392.7,945.4c2-2,4.5-3.2,7.2-3.5c-0.3,2.7-1.5,5.2-3.5,7.2v0c-2,2-4.5,3.2-7.2,3.5
		C389.5,949.9,390.7,947.4,392.7,945.4z M377.2,944.2c-2-2-3.2-4.5-3.5-7.2c2.7,0.3,5.2,1.5,7.2,3.5c2,2,3.2,4.5,3.5,7.2
		C381.6,947.4,379.1,946.1,377.2,944.2z"/>
</g>
<g>
	<path fill="#2D3244" d="M666.9,996.8c-7.4,0-13.5-6.1-13.5-13.5v-5.9h2.8v5.9c0,5.9,4.8,10.7,10.7,10.7c5.9,0,10.7-4.8,10.7-10.7
		V982h2.8v1.4C680.4,990.8,674.3,996.8,666.9,996.8z"/>
	<path fill="#2D3244" d="M654.6,974.7c-7.8,0-13.6-1.8-16.7-10.7l0-0.1l-2.4-8.9c-1.5-5.9,0.7-11.5,5.4-13.9l1.2-0.6l1.3,2.5
		l-1.2,0.6c-3.5,1.8-5.1,6.1-4,10.7l2.4,8.8c2.6,7.4,7,8.7,14.1,8.7c7.1,0,11.4-1.4,14.1-8.7l2.4-8.9c1.1-4.5-0.4-8.7-3.8-10.6
		l-1.2-0.7l1.3-2.5l1.2,0.7c4.5,2.5,6.6,8,5.2,13.7l-2.5,9C668.2,972.9,662.6,974.7,654.6,974.7z"/>
	<path fill="#4A5160" d="M644.6,945.7c-2.7,0-4.8-2.2-4.8-4.8c0-2.7,2.2-4.8,4.8-4.8c2.7,0,4.8,2.2,4.8,4.8
		C649.4,943.5,647.3,945.7,644.6,945.7z M644.6,938.8c-1.1,0-2,0.9-2,2c0,1.1,0.9,2,2,2c1.1,0,2-0.9,2-2
		C646.6,939.7,645.7,938.8,644.6,938.8z"/>
	<path fill="#4A5160" d="M679.2,984.6c-3.9,0-7.1-3.2-7.1-7.1c0-3.9,3.2-7.1,7.1-7.1c3.9,0,7.1,3.2,7.1,7.1
		C686.3,981.4,683.1,984.6,679.2,984.6z M679.2,973.2c-2.4,0-4.3,1.9-4.3,4.3c0,2.4,1.9,4.3,4.3,4.3c2.4,0,4.3-1.9,4.3-4.3
		C683.5,975.1,681.5,973.2,679.2,973.2z"/>
	<path fill="#4A5160" d="M664.9,945.7c-2.7,0-4.8-2.2-4.8-4.8c0-2.7,2.2-4.8,4.8-4.8c2.7,0,4.8,2.2,4.8,4.8
		C669.7,943.5,667.6,945.7,664.9,945.7z M664.9,938.8c-1.1,0-2,0.9-2,2c0,1.1,0.9,2,2,2c1.1,0,2-0.9,2-2
		C666.9,939.7,666,938.8,664.9,938.8z"/>
</g>
<g>
	<path fill="#4A5160" d="M99.1,940.8h-4.7c0.3-0.6,0.4-1.2,0.4-1.8c0-2.2-1.8-4-4-4c-2.2,0-4,1.8-4,4c0,0.7,0.2,1.3,0.4,1.8h-4.6
		c-2.3,0-4.1,1.8-4.1,4.1v7.5h24.6v-7.5C103.2,942.6,101.4,940.8,99.1,940.8z M90.9,937.3c0.9,0,1.7,0.8,1.7,1.7s-0.8,1.7-1.7,1.7
		c-0.9,0-1.7-0.8-1.7-1.7S90,937.3,90.9,937.3z M100.9,950H80.9v-5.2c0-1,0.8-1.7,1.7-1.7h16.4c1,0,1.7,0.8,1.7,1.7V950z"/>
	<polygon fill="#4A5160" points="96.4,972.2 96.4,975.5 85.4,975.5 85.4,964.5 96.4,964.5 96.4,965.5 91.4,970.5 88.9,967.9 
		87.2,969.5 91.4,973.8 93.3,971.9 93.3,971.9 100.4,964.8 98.7,963.2 98.7,962.2 83,962.2 83,977.9 98.7,977.9 98.7,969.8 	"/>
	<g>
		<polygon fill="#2D3244" points="106.9,990.7 74.8,990.7 74.8,949.9 76.2,949.9 76.2,947.5 72.5,947.5 72.5,993 109.3,993 
			109.3,947.5 105.6,947.5 105.6,949.9 106.9,949.9 		"/>
		<polygon fill="#2D3244" points="105.4,942.6 105.6,944.9 111.6,944.9 111.6,995.6 70.1,995.6 70.1,944.9 76.2,944.9 76.5,942.6 
			67.8,942.6 67.8,998 114,998 114,942.6 		"/>
	</g>
</g>
<polygon fill="#2D3244" points="-27.6,805.8 -27.6,808.6 -25.5,808.6 -25.5,848.3 -51.6,848.3 -77.6,848.3 -77.6,808.6 -75.7,808.6 
	-75.7,805.8 -80.4,805.8 -80.4,851.1 -51.6,851.1 -22.7,851.1 -22.7,805.8 "/>
<g>
	<path fill="#4A5160" d="M-46.6,803.3c-2,0-3.8,0.9-5,2.4c0,0,0,0,0,0c-1.2-1.5-3-2.4-5-2.4H-73v37.8h16.4c2,0,3.6,1.6,3.6,3.6h1.4
		h1.4c0-2,1.6-3.6,3.6-3.6h16.4v-37.8H-46.6z M-33,838.3h-13.6c-2,0-3.8,0.9-5,2.4c0,0,0,0,0,0c-1.2-1.5-3-2.4-5-2.4h-13.6v-32.2
		h13.6c2,0,3.6,1.6,3.6,3.6h1.4h1.4c0-2,1.6-3.6,3.6-3.6H-33V838.3z"/>
	<polygon fill="#4A5160" points="-53,815.8 -53,831.1 -51.6,831.1 -50.2,831.1 -50.2,815.8 -51.6,815.8 	"/>
</g>
<g>
	<path fill="#2D3244" d="M1065.4,804.3c-5.8,5.8-7.3,14.5-4.2,21.8l2.1-2.2c-2.1-6.1-0.7-13,4-17.7c5.1-5.1,12.9-6.5,19.3-3.2
		l1.3-2.5C1080.5,796.8,1071.4,798.3,1065.4,804.3z"/>
</g>
<path fill="none" stroke="#444444" stroke-width="2.8" stroke-linecap="square" stroke-miterlimit="10" d="M1092.4,805.3"/>
<path fill="#2D3244" d="M1110.6,831.8l-13.5-14.3l-2,1.9l13.5,14.3c0.8,0.9,0.8,2.3-0.1,3.1l-0.1,0.1c-0.9,0.9-2.3,0.9-3.2,0
	l-5.7-5.7l-2,2l5.7,5.7c0.9,0.9,0.9,2.3,0,3.2c-0.9,0.9-2.4,0.9-3.2,0l-5.7-5.7l-2,2l5.7,5.7c0.9,0.9,0.9,2.3,0,3.2
	c-0.9,0.9-2.3,0.9-3.2,0c0,0,0,0-0.1-0.1l-4.7-4.7l0,0l-0.6-0.6l-2,2l5.3,5.3c0,0,0,0,0,0c0.8,0.9,0.8,2.3-0.1,3.1
	c-0.9,0.9-2.3,0.9-3.2,0l-3.6-3.6l-2,2l3.6,3.6c1,1,2.3,1.5,3.6,1.5c1.3,0,2.6-0.5,3.6-1.5c1-1,1.5-2.3,1.5-3.7c0.1,0,0.1,0,0.2,0
	c1.3,0,2.6-0.5,3.6-1.5c1-1,1.5-2.4,1.5-3.7c0,0,0.1,0,0.1,0c1.4,0,2.6-0.5,3.6-1.5c1-1,1.5-2.4,1.5-3.7c0,0,0.1,0,0.1,0
	c1.3,0,2.6-0.5,3.6-1.5l0.1-0.1C1112.4,836.9,1112.5,833.8,1110.6,831.8z"/>
<path fill="#4A5160" d="M1088.6,840.8c-1-1-2.4-1.5-3.7-1.5c0-1.3-0.4-2.7-1.5-3.7c-1-1-2.4-1.5-3.7-1.5c0-1.3-0.4-2.7-1.5-3.7v0
	c-1-1-2.4-1.5-3.7-1.5c0-1.3-0.4-2.7-1.5-3.7c-2-2-5.2-2-7.2,0l-3.9,3.9c-1,1-1.5,2.2-1.5,3.6c0,1.4,0.5,2.6,1.5,3.6
	c1,1,2.3,1.5,3.6,1.5c0,0,0.1,0,0.1,0c0,1.3,0.4,2.7,1.5,3.7c1,1,2.3,1.5,3.6,1.5c0,0,0.1,0,0.1,0c0,1.3,0.4,2.7,1.5,3.7
	c1,1,2.3,1.5,3.6,1.5c0,0,0.1,0,0.1,0c0,1.3,0.4,2.7,1.5,3.7c1,1,2.3,1.5,3.6,1.5s2.6-0.5,3.6-1.5l3.9-3.9
	C1090.6,846,1090.6,842.8,1088.6,840.8z M1063.9,834.3c-0.4-0.4-0.7-1-0.7-1.6c0-0.6,0.2-1.2,0.7-1.6l3.9-3.9c0.4-0.4,1-0.7,1.6-0.7
	c0.6,0,1.2,0.2,1.6,0.7c0.9,0.9,0.9,2.3,0,3.2l-3.9,3.9C1066.2,835.2,1064.8,835.2,1063.9,834.3z M1069.1,839.5
	c-0.9-0.9-0.9-2.3,0-3.2l3.9-3.9c0.4-0.4,1-0.7,1.6-0.7c0.6,0,1.2,0.2,1.6,0.7c0.9,0.9,0.9,2.3,0,3.2l-3.9,3.9
	C1071.4,840.4,1070,840.4,1069.1,839.5z M1074.3,844.7c-0.9-0.9-0.9-2.3,0-3.2l3.9-3.9c0.4-0.4,1-0.7,1.6-0.7c0.6,0,1.2,0.2,1.6,0.7
	c0.9,0.9,0.9,2.3,0,3.2l-3.9,3.9C1076.6,845.6,1075.2,845.6,1074.3,844.7z M1086.6,846l-3.9,3.9c-0.9,0.9-2.3,0.9-3.2,0
	c-0.9-0.9-0.9-2.3,0-3.2l3.9-3.9c0.4-0.4,1-0.7,1.6-0.7c0.6,0,1.2,0.2,1.6,0.7C1087.5,843.7,1087.5,845.1,1086.6,846z"/>
<g>
	<path fill="#4A5160" d="M1099.9,814.8c-5.7,5.7-16.3-0.2-16.4-0.2l-0.9-0.5l-0.8,0.8c-3.9,3.9-7.6,3.7-9.6,3.1l11.6-11.6
		c6.6-6.6,17.4-6.6,24,0c5.7,5.7,6.5,14.5,2.4,21l1.9,2.2c5.3-7.7,4.5-18.3-2.3-25.2c-7.7-7.7-20.3-7.7-28,0l-14.2,14.2l1.4,0.9
		c0.1,0.1,1.9,1.2,4.6,1.5c2.3,0.2,5.8-0.3,9.4-3.5c3,1.5,12.7,5.4,18.8-0.7l1-1l-2-2L1099.9,814.8z"/>
</g>
<rect x="1369.9" y="828.5" fill="#4A5160" width="5.3" height="2.8"/>
<polygon fill="#4A5160" points="1379.2,857.8 1376.4,857.8 1376.4,847.2 1368.6,847.2 1368.6,857.8 1365.8,857.8 1365.8,844.4 
	1379.2,844.4 "/>
<rect x="1353.9" y="844.4" fill="#4A5160" width="5.3" height="2.8"/>
<rect x="1385.8" y="844.4" fill="#4A5160" width="5.3" height="2.8"/>
<path fill="#2D3244" d="M1387.2,833.8v-9.9l-13.3-10.6v-5.9h10.6v-10.8h-13.4v16.6l-13.3,10.6v9.9h-13.3v24h55.8v-24H1387.2z
	 M1373.9,799.4h7.8v5.2h-7.8V799.4z M1397.6,855h-50.2v-18.4h13.3v-11.3l11.9-9.5l11.9,9.5v11.3h13.3V855z"/>
<g>
	<path fill="#2D3244" d="M1207,998.8l-1.7-2.2c0.3-0.2,0.9-0.7,1.1-0.9c0.5-0.5,1-0.9,1.6-1.3c2.8-2,5.8-3.2,8.5-3.2l2.7,0
		c6.8,0,23.7,0,25.8,0c2.7,0,4.3-1,6.3-3c1.7-1.6,11.2-11.2,11.3-11.3c0.7-0.7,1.1-1.6,1.1-2.6c0-1-0.4-1.9-1.1-2.6
		c-1.4-1.4-3.8-1.4-5.2,0l-9.7,9.7c-1.2,1.1-2.6,1.7-4.1,1.7c-0.3,0-0.5,0.1-0.8,0.1l-9.9,0l-3.6,0l0-2.8l3.6,0l9.9,0
		c1.7,0,3.1-1.4,3.1-3.1c0-1.7-1.4-3.1-3.1-3.1l-13.7,0l-0.2-0.1c-3.4-1.3-6.3-1.9-9-2.1c-5.9-0.3-11,2.3-17.4,8.7
		c-1.1,1.1-2.1,2.1-3,2.9c-2.3,2.2-3.9,3.6-3.9,3.6l-1.9-2.1c0,0,1.6-1.4,3.8-3.6c0.9-0.9,1.9-1.8,3-2.9c7-7,12.8-9.8,19.5-9.6
		c2.9,0.1,6,0.8,9.6,2.1l13.2,0c3,0,5.4,2.2,5.8,5.1l6.9-6.9c2.5-2.5,6.6-2.5,9.2,0c1.2,1.2,1.9,2.9,1.9,4.6c0,1.7-0.7,3.4-1.9,4.6
		c-0.4,0.4-9.6,9.6-11.4,11.3c-2.3,2.2-4.6,3.7-8.2,3.7c-2.1,0-19.1,0-25.8,0l-2.7,0c-2.1,0-4.6,0.9-6.9,2.6
		c-0.5,0.3-0.9,0.7-1.3,1.1C1207.9,998.1,1207.1,998.7,1207,998.8z"/>
	<path fill="none" stroke="#444444" stroke-width="2.8" stroke-miterlimit="10" d="M1240.8,976.1"/>
	<path fill="#4A5160" d="M1247.7,965.5C1247.7,965.5,1247.7,965.5,1247.7,965.5c-0.9-2.7-3.3-4.7-6.2-5.1v-4.8l0.5,0
		c0,0,0.1,0,0.2,0c4,0,7.7-1.5,10.5-4.4c0,0,0,0,0,0c2.8-2.8,4.4-6.6,4.4-10.7l0-1.4l-1.4,0c-4,0-7.8,1.5-10.7,4.4
		c-1.6,1.6-2.7,3.4-3.4,5.4c0-3.9-1.6-7.6-4.3-10.4c-2.9-2.8-6.7-4.4-10.7-4.4h-1.4l0,1.4c0,4,1.5,7.8,4.4,10.7
		c2.5,2.5,5.7,4,9.2,4.3v10c-1.9,0.4-3.5,1.5-4.7,3.1c-0.4-0.1-0.9-0.1-1.3-0.1c-3,0-5.6,1.7-6.9,4.2l2.8,0.8
		c0.9-1.3,2.4-2.2,4.1-2.2c0.5,0,1,0.1,1.5,0.2l1.1,0.4l0.5-1.1c0.8-1.7,2.5-2.7,4.4-2.7c2.4,0,4.5,1.7,4.9,4.2l0.2,1.4l1.4-0.2
		c0.3-0.1,0.6-0.1,0.8-0.1c1.5,0,2.9,0.7,3.8,1.8l2-1.9C1252.1,966.5,1250,965.5,1247.7,965.5z M1247,945.4c2-2,4.5-3.2,7.2-3.5
		c-0.3,2.7-1.5,5.2-3.5,7.2v0c-2,2-4.5,3.2-7.2,3.5C1243.8,949.9,1245,947.4,1247,945.4z M1231.5,944.2c-2-2-3.2-4.5-3.5-7.2
		c2.7,0.3,5.2,1.5,7.2,3.5c2,2,3.2,4.5,3.5,7.2C1236,947.4,1233.4,946.1,1231.5,944.2z"/>
</g>
<g>
	<path fill="#2D3244" d="M1521.2,996.8c-7.4,0-13.5-6.1-13.5-13.5v-5.9h2.8v5.9c0,5.9,4.8,10.7,10.7,10.7c5.9,0,10.7-4.8,10.7-10.7
		V982h2.8v1.4C1534.7,990.8,1528.6,996.8,1521.2,996.8z"/>
	<path fill="#2D3244" d="M1508.9,974.7c-7.8,0-13.6-1.8-16.7-10.7l0-0.1l-2.4-8.9c-1.5-5.9,0.7-11.5,5.4-13.9l1.2-0.6l1.3,2.5
		l-1.2,0.6c-3.5,1.8-5.1,6.1-4,10.7l2.4,8.8c2.6,7.4,7,8.7,14.1,8.7c7.1,0,11.4-1.4,14.1-8.7l2.4-8.9c1.1-4.5-0.4-8.7-3.8-10.6
		l-1.2-0.7l1.3-2.5l1.2,0.7c4.5,2.5,6.6,8,5.2,13.7l-2.5,9C1522.5,972.9,1516.9,974.7,1508.9,974.7z"/>
	<path fill="#4A5160" d="M1498.9,945.7c-2.7,0-4.8-2.2-4.8-4.8c0-2.7,2.2-4.8,4.8-4.8c2.7,0,4.8,2.2,4.8,4.8
		C1503.7,943.5,1501.6,945.7,1498.9,945.7z M1498.9,938.8c-1.1,0-2,0.9-2,2c0,1.1,0.9,2,2,2c1.1,0,2-0.9,2-2
		C1500.9,939.7,1500,938.8,1498.9,938.8z"/>
	<path fill="#4A5160" d="M1533.5,984.6c-3.9,0-7.1-3.2-7.1-7.1c0-3.9,3.2-7.1,7.1-7.1c3.9,0,7.1,3.2,7.1,7.1
		C1540.6,981.4,1537.4,984.6,1533.5,984.6z M1533.5,973.2c-2.4,0-4.3,1.9-4.3,4.3c0,2.4,1.9,4.3,4.3,4.3c2.4,0,4.3-1.9,4.3-4.3
		C1537.8,975.1,1535.9,973.2,1533.5,973.2z"/>
	<path fill="#4A5160" d="M1519.2,945.7c-2.7,0-4.8-2.2-4.8-4.8c0-2.7,2.2-4.8,4.8-4.8c2.7,0,4.8,2.2,4.8,4.8
		C1524,943.5,1521.9,945.7,1519.2,945.7z M1519.2,938.8c-1.1,0-2,0.9-2,2c0,1.1,0.9,2,2,2c1.1,0,2-0.9,2-2
		C1521.3,939.7,1520.3,938.8,1519.2,938.8z"/>
</g>
<g>
	<path fill="#4A5160" d="M953.5,940.8h-4.7c0.3-0.6,0.4-1.2,0.4-1.8c0-2.2-1.8-4-4-4c-2.2,0-4,1.8-4,4c0,0.7,0.2,1.3,0.4,1.8H937
		c-2.3,0-4.1,1.8-4.1,4.1v7.5h24.6v-7.5C957.6,942.6,955.7,940.8,953.5,940.8z M945.2,937.3c0.9,0,1.7,0.8,1.7,1.7s-0.8,1.7-1.7,1.7
		c-0.9,0-1.7-0.8-1.7-1.7S944.3,937.3,945.2,937.3z M955.2,950h-19.9v-5.2c0-1,0.8-1.7,1.7-1.7h16.4c1,0,1.7,0.8,1.7,1.7V950z"/>
	<polygon fill="#4A5160" points="950.7,972.2 950.7,975.5 939.7,975.5 939.7,964.5 950.7,964.5 950.7,965.5 945.8,970.5 
		943.2,967.9 941.5,969.5 945.8,973.8 947.6,971.9 947.6,971.9 954.7,964.8 953,963.2 953,962.2 937.3,962.2 937.3,977.9 953,977.9 
		953,969.8 	"/>
	<g>
		<polygon fill="#2D3244" points="961.2,990.7 929.1,990.7 929.1,949.9 930.5,949.9 930.5,947.5 926.8,947.5 926.8,993 963.6,993 
			963.6,947.5 959.9,947.5 959.9,949.9 961.2,949.9 		"/>
		<polygon fill="#2D3244" points="959.7,942.6 959.9,944.9 965.9,944.9 965.9,995.6 924.4,995.6 924.4,944.9 930.5,944.9 
			930.9,942.6 922.1,942.6 922.1,998 968.3,998 968.3,942.6 		"/>
	</g>
</g>
<polygon fill="#2D3244" points="826.7,805.8 826.7,808.6 828.8,808.6 828.8,848.3 802.7,848.3 776.7,848.3 776.7,808.6 778.6,808.6 
	778.6,805.8 773.9,805.8 773.9,851.1 802.7,851.1 831.6,851.1 831.6,805.8 "/>
<g>
	<path fill="#4A5160" d="M807.7,803.3c-2,0-3.8,0.9-5,2.4c0,0,0,0,0,0c-1.2-1.5-3-2.4-5-2.4h-16.4v37.8h16.4c2,0,3.6,1.6,3.6,3.6
		h1.4h1.4c0-2,1.6-3.6,3.6-3.6h16.4v-37.8H807.7z M821.3,838.3h-13.6c-2,0-3.8,0.9-5,2.4c0,0,0,0,0,0c-1.2-1.5-3-2.4-5-2.4h-13.6
		v-32.2h13.6c2,0,3.6,1.6,3.6,3.6h1.4h1.4c0-2,1.6-3.6,3.6-3.6h13.6V838.3z"/>
	<polygon fill="#4A5160" points="801.3,815.8 801.3,831.1 802.7,831.1 804.1,831.1 804.1,815.8 802.7,815.8 	"/>
</g>
<path fill="#2D3244" d="M826.7,274.7l1.5,2.2c3.1-2.2,4.9-5.8,4.9-9.6c0-3.8-1.8-7.3-4.8-9.5l-1.6,2.1c2.4,1.7,3.8,4.5,3.8,7.4
	C830.5,270.2,829.1,273,826.7,274.7z"/>
<path fill="#2D3244" d="M838.9,267.3c0,5.5-2.7,10.8-7.2,14l1.6,2.2c5.2-3.7,8.3-9.8,8.3-16.1c0-6.3-3.1-12.3-8.2-16.1l-1.6,2.1
	C836.2,256.6,838.9,261.8,838.9,267.3z"/>
<path fill="#4A5160" d="M783.4,294.6c-0.2,0-0.4-0.1-0.5-0.4l-4.7-12.8h-2.8l5.1,13.7c0.5,1.3,1.7,2.1,3,2.1h7.5
	c1.7,0,2.7-1.7,2.7-3.2c0-2.3-1-4.4-3-6c-0.3-0.3-1.3-1.1-1.6-1.5l0,0c-0.1-0.1-0.1-0.3-0.1-0.5c0-0.2,0-0.5,0.1-0.8
	c0.1-0.5,0.1-1,0.2-1.8c0-0.7-0.1-1.4-0.3-2h-2.9c0.1,0.1,0.1,0.3,0.2,0.4c0.1,0.2,0.1,0.3,0.2,0.4c0.2,0.5,0.2,0.9,0.2,1.2
	c0,0.5-0.1,1-0.1,1.4c-0.1,0.4-0.1,0.8-0.1,1.3c0,0.3,0,0.8,0.2,1.3c0.2,0.8,0.9,1.4,2.4,2.7c1.4,1.2,2.1,2.5,2.1,4
	c0,0.2-0.1,0.5-0.2,0.6H783.4z"/>
<path fill="#4A5160" d="M815.3,257.8v-15.1l-2.2,1.9c-0.5,0.4-1.1,1-1.8,1.6c-2.2,1.9-5.3,4.7-8.6,7c-3.7,2.6-7.8,4.8-11.4,4.8
	h-20.4c-1.3,0-2.4,1.1-2.4,2.4v0.6c-2.8,1.5-4.5,4.3-4.5,7.5c0,3.2,1.8,6,4.5,7.5v0.5c0,1.3,1.1,2.4,2.4,2.4h1.5v0h17.1v0h1.9
	c2.4,0,6.1,0.8,11.4,4c2.9,1.7,6.4,4.2,10.4,7.6l2.2,1.9v-15.3c4-1.4,6.7-5.2,6.7-9.5C822,263.1,819.2,259.3,815.3,257.8z
	 M768.5,272.7c-1.2-1.1-1.9-2.6-1.9-4.3c0-1.7,0.7-3.2,1.9-4.3V272.7z M812.6,286.5c-3.5-2.9-6.8-5.1-9.9-6.8
	c-3.7-2.1-7.1-3.2-10.1-3.5v-0.1H790v0h-3.6h-13h-2.2v-15.5H790v12.8h2.7v-12.9c3.3-0.4,6.8-2,10.1-4.2c3.8-2.5,7.4-5.6,9.9-7.8
	V286.5z M815.3,274v-13.3c2.4,1.3,4,3.8,4,6.6C819.3,270.2,817.7,272.8,815.3,274z"/>
</svg>
